<svg xmlns="http://www.w3.org/2000/svg" viewBox="0 0 512 512"><path d="M487.9 327.3c0 22.5-18.2 40.7-40.7 40.7H91.3c-22.5 0-40.7-18.2-40.7-40.7v-94c0-22.5 18.2-40.7 40.7-40.7h355.8c22.5 0 40.7 18.2 40.7 40.7l.1 94z" fill="#eee"/><path d="M447.2 325H91.3c-5.4 0-10.5-1.1-15.2-3v-88.6c0-22.5 18.2-40.7 40.7-40.7H91.3c-22.5 0-40.7 18.2-40.7 40.7v93.9c0 22.5 18.2 40.7 40.7 40.7h355.8c22.5 0 40.7-18.2 40.7-40.7v-43c.1 22.5-18.1 40.7-40.6 40.7z" fill="#10c1d8"/><g fill="#333232" stroke="#333232" stroke-width="7" stroke-miterlimit="10"><path d="M447.2 371.7H91.3c-24.4 0-44.3-19.9-44.3-44.3v-94c0-24.4 19.9-44.3 44.3-44.3h189.1c2 0 3.7 1.6 3.7 3.7s-1.6 3.7-3.7 3.7H91.3c-20.4 0-37 16.6-37 37v94c0 20.4 16.6 37 37 37h355.8c20.4 0 37-16.6 37-37v-94c0-11.8-5.7-23-15.3-30-1.6-1.2-2-3.5-.8-5.1s3.5-2 5.1-.8c11.5 8.3 18.3 21.7 18.3 35.9v94c.1 24.3-19.8 44.2-44.2 44.2z"/><path d="M447.2 371.5H91.5c-2 0-3.7-1.6-3.7-3.7V321c0-24.4 19.9-44.3 44.3-44.3h274.3c24.4 0 44.3 19.9 44.3 44.3v46.8c.1 2.1-1.5 3.7-3.5 3.7zm-352-7.3h348.4V321c0-20.4-16.6-37-37-37H132.2c-20.4 0-37 16.6-37 37v43.2z"/></g><path d="M147.3 350.4c-3.6 0-7.3 2.8-8.3 6.3 0 0-11.5 40.8-43.6 40.8H73.1c-3.6 0-5 2.5-3.3 5.6l16.3 28.1c1.8 3.1 6 4.5 9.3 3.1l71.8-30.8c3.3-1.4 3.1-2.7-.5-2.8l-18.5-.6c-3.6-.1-4.7-2.5-2.4-5.3 0 0 12.2-15.1 12.2-44.4h-10.7z" fill="#ff8387"/><path d="M92.7 437.8c-3.6 0-7.2-1.9-9.1-5.1l-16.3-28.1c-1.4-2.4-1.5-4.9-.4-6.9s3.4-3.1 6.2-3.1h22.3c29.5 0 40.7-38.2 40.8-38.6 1.3-4.7 6.2-8.4 11.1-8.4H158c1.6 0 2.9 1.3 2.9 2.9 0 30.1-12.3 45.6-12.9 46.3-.1.2-.2.3-.3.5a1.76 1.76 0 0 1 .6.1l18.5.7c3.3.1 5.2 1.2 5.6 3.3s-1 3.8-4 5.1L96.6 437c-1.3.5-2.6.8-3.9.8zm-19.6-37.4c-.7 0-1.1.2-1.1.2s.1.4.4 1l16.3 28.1c1 1.8 3.7 2.7 5.6 1.9l65.7-28.1-12-.5c-2.9-.1-5-1.3-6-3.4-.9-2-.4-4.5 1.4-6.7.1-.1 10.7-13.7 11.5-39.6h-7.6c-2.3 0-4.8 1.9-5.5 4.1-.1.4-3.1 10.8-10.2 21.2-9.6 14.2-22.1 21.7-36.3 21.7l-22.2.1z" fill="#333232"/><path d="M404.1 352.1c3.5 0 7.2 2.8 8.2 6.2 0 0 11.3 40 42.8 40H477c3.5 0 5 2.5 3.2 5.5l-16 27.6c-1.8 3-5.9 4.4-9.1 3l-70.5-30.2c-3.2-1.4-3-2.6.5-2.7l18.2-.6c3.5-.1 4.6-2.5 2.4-5.2 0 0-12-14.8-12-43.6h10.4z" fill="#ff8387"/><g fill="#333232"><path d="M457.7 437.9c-1.3 0-2.6-.2-3.8-.8L383.5 407c-3-1.3-4.4-3-4-5s2.3-3.1 5.5-3.2l18.2-.6h.6c-.1-.1-.2-.3-.3-.4-.5-.6-12.6-15.9-12.6-45.4 0-1.6 1.3-2.9 2.9-2.9h10.4c4.8 0 9.6 3.6 10.9 8.3.1.4 11.1 37.9 40.1 37.9H477c2.7 0 4.9 1.1 6.1 3.1 1.1 2 1 4.4-.4 6.8l-16 27.6c-1.8 2.9-5.4 4.7-9 4.7zm-66-33.7l64.5 27.6c1.9.8 4.4 0 5.5-1.8l16-27.6c.4-.6.4-1 .4-1.1 0 0-.4-.1-1.1-.1h-21.9c-13.9 0-26.2-7.4-35.6-21.3-6.9-10.3-9.9-20.4-10-20.8-.6-2.2-3.1-4.1-5.4-4.1h-7.5c.8 25.6 11.2 38.8 11.3 38.9 1.8 2.2 2.3 4.6 1.4 6.6s-3 3.2-5.9 3.3l-11.7.4z"/><path d="M361.8 340.3H173.4c-2 0-3.7-1.6-3.7-3.7 0-2 1.6-3.7 3.7-3.7h188.4c2 0 3.7 1.6 3.7 3.7-.1 2-1.7 3.7-3.7 3.7z" stroke="#333232" stroke-width="7" stroke-miterlimit="10"/></g><path d="M50 164.1a3.86 3.86 0 0 1-3.3-1.9L37 144.5l-17.7-9.7c-1.2-.6-1.9-1.9-1.9-3.3s.7-2.6 1.9-3.2l17.7-9.7 9.7-17.7c.7-1.2 1.9-1.9 3.3-1.9h0c1.4 0 2.6.7 3.2 1.9l9.7 17.7 17.7 9.7c1.2.6 1.9 1.9 1.9 3.2 0 1.4-.7 2.6-1.9 3.3l-17.7 9.7-9.7 17.7c-.6 1.2-1.9 1.9-3.2 1.9z" fill="#10c1d8"/><path d="M50.6 103.9l10.1 18.4 18.4 10.1-18.4 10.1-10.1 18.4-10.1-18.4-18.4-10.1 18.4-10.1 10.1-18.4zm0-7.4h0c-2.7 0-5.1 1.5-6.4 3.8l-9 16.5-16.5 9c-2.3 1.3-3.8 3.7-3.8 6.4s1.5 5.1 3.8 6.4l16.5 9 9 16.5c1.3 2.3 3.7 3.8 6.4 3.8h0c2.7 0 5.1-1.5 6.4-3.8l9-16.5 16.5-9c2.3-1.3 3.8-3.7 3.8-6.4s-1.5-5.1-3.8-6.4l-16.5-9-9-16.5c-1.2-2.3-3.7-3.8-6.4-3.8z" fill="#333232"/><path d="M339.7 141.6c-1.3 0-2.6-.7-3.2-1.9l-7.3-13.3-13.3-7.3c-1.2-.6-1.9-1.9-1.9-3.2s.7-2.6 1.9-3.2l13.3-7.2 7.3-13.3c.6-1.2 1.9-1.9 3.2-1.9h0c1.3 0 2.6.7 3.2 1.9l7.3 13.3 13.3 7.2c1.2.6 1.9 1.9 1.9 3.2s-.7 2.6-1.9 3.2l-13.3 7.3-7.3 13.3c-.7 1.1-1.9 1.9-3.2 1.9h0z" fill="#10c1d8"/><path d="M339.7 94l7.8 14.2 14.2 7.8-14.2 7.8-7.8 14.2-7.8-14.2-14.2-7.8 14.2-7.8 7.8-14.2zm0-7.4c-2.7 0-5.1 1.5-6.4 3.8l-6.8 12.3-12.3 6.7c-2.4 1.3-3.8 3.7-3.8 6.4s1.5 5.1 3.8 6.4l12.3 6.7 6.8 12.3c1.3 2.3 3.7 3.8 6.4 3.8h0c2.7 0 5.1-1.5 6.4-3.8l6.7-12.3 12.3-6.7c2.3-1.3 3.8-3.7 3.8-6.4s-1.5-5.1-3.8-6.4l-12.3-6.7-6.7-12.3c-1.3-2.3-3.7-3.8-6.4-3.8h0z" fill="#333232"/><path d="M402.2 307.9a11.61 11.61 0 0 1-11.6 11.6h-33.4a11.61 11.61 0 0 1-11.6-11.6 11.61 11.61 0 0 1 11.6-11.6h33.4a11.61 11.61 0 0 1 11.6 11.6z" fill="#fa759e"/><path d="M390.6 323.1h-33.4c-8.4 0-15.3-6.8-15.3-15.3 0-8.4 6.9-15.3 15.3-15.3h33.4c8.4 0 15.3 6.9 15.3 15.3 0 8.5-6.9 15.3-15.3 15.3zm-33.4-23.2c-4.4 0-8 3.6-8 8s3.6 7.9 8 7.9h33.4c4.4 0 8-3.6 8-7.9 0-4.4-3.6-8-8-8h-33.4z" fill="#333232"/><g fill="#10c1d8"><path d="M373.1 240.4l-.7-.3c-.2-.1-.7-.4-.7-.4-25.4-13.7-36.1-39.7-36.1-39.7l26.7-23.9 33.2 16.9 1.3.7 33.2 16.9-3.7 35.6c.1.2-27.2 6.8-53.2-5.8z"/><path d="M382.5 244.2c-3.1-1-6.3-2.2-9.4-3.7 0 0-.5-.2-.7-.3s-.7-.4-.7-.4c-25.4-13.7-36.1-39.7-36.1-39.7l26.7-23.9 19.3 9.9-26.6 23.8s8.3 20.1 27.5 34.3z"/></g><path d="M398.6 194.8l-44.9-22.9 9.6-18.8s19.3-16.2 38.5-6.4l29.1-66s4.2-11.9 22.2-5c0 0 1.8.6 2.7 1.1.8.4 2.4 1.5 2.4 1.5 16.1 10.6 8.9 20.9 8.9 20.9l-36.4 62.3c19.2 9.8 17.4 34.9 17.4 34.9l-9.6 18.8-39.9-20.4z" fill="#ff8387"/><g fill="#333232"><path d="M408.7 251.8c-10.4 0-23.8-1.7-37.1-8.1l-.8-.4c-.2-.1-.6-.3-.8-.5-26.2-14.2-37.2-40.3-37.6-41.5-.6-1.4-.2-3.1.9-4.1l26.7-23.9c1.1-1 2.8-1.2 4.1-.5l67.7 34.6a3.81 3.81 0 0 1 2 3.6l-3.7 35.6a3.86 3.86 0 0 1-2.8 3.2c-.6.3-8 2-18.6 2zM340.2 201c3.2 6.5 13.7 25 33.3 35.5.1 0 .1.1.2.1a1.44 1.44 0 0 0 .3.2l.4.2c.1 0 .1.1.2.1 20.1 9.7 41.2 7.4 48.3 6.2l3.2-30.5-63.1-32.2-22.8 20.4z"/><path d="M438.5 218.8a3.53 3.53 0 0 1-1.7-.4L397 198l-44.9-22.9c-1.8-.9-2.5-3.1-1.6-4.9l9.6-18.8c.2-.4.5-.8.9-1.1.8-.7 19.2-15.7 39-8.4l27.6-62.6c.4-1 2.3-5.4 7.6-7.8 5.2-2.4 11.6-2.1 19.2.7.4.1 2 .7 3 1.2 1.1.5 2.5 1.5 2.9 1.8 6.7 4.4 10.7 9.5 11.8 15.1 1.1 5.7-1.3 9.8-1.9 10.8l-34.6 59c17.6 11.7 16.1 35.4 16 36.5 0 .5-.2 1-.4 1.4l-9.6 18.8c-.4.9-1.2 1.5-2.1 1.8-.3.1-.7.2-1 .2zm-38.2-27.3l36.6 18.7 7.6-14.8c.1-3.9-.3-23-15.4-30.7-.9-.5-1.6-1.3-1.9-2.2-.3-1-.1-2 .4-2.9L464 97.3c0-.1.1-.2.1-.2.5-.7 4.4-7.7-7.9-15.8l-1.9-1.2c-.1 0-.2-.1-.3-.1-.3-.2-1.2-.5-2.1-.8-5.7-2.2-10.4-2.5-13.7-1-2.9 1.4-3.9 3.8-3.9 3.8 0 .1-.1.2-.1.3l-29.1 66c-.4.9-1.2 1.6-2.1 2-.9.3-2 .3-2.9-.2-15.1-7.7-30.8 3.1-33.9 5.5l-7.6 14.8 41.7 21.1z"/><path d="M353.1 225.3c-1 0-2-.4-2.7-1.2-1.4-1.5-1.3-3.8.2-5.2l31.8-29.4c1.5-1.4 3.8-1.3 5.2.2s1.3 3.8-.2 5.2l-31.8 29.4c-.7.7-1.6 1-2.5 1zm45.6 22.5c-.2 0-.5 0-.7-.1-2-.4-3.3-2.3-2.9-4.3l7.6-40.2c.4-2 2.3-3.3 4.3-2.9s3.3 2.3 2.9 4.3l-7.6 40.2c-.3 1.8-1.9 3-3.6 3z"/></g></svg>