<svg xmlns="http://www.w3.org/2000/svg" viewBox="0 0 512 512"><path d="M365.4 79.8L318.3 153h26.2l-20.9 57.5 52.3-73.2H355l10.4-57.5z" fill="#ff8387"/><path d="M323.5 217.9c-1.1 0-2.3-.3-3.4-.8-3.2-1.7-4.7-5.5-3.4-8.9l17.4-47.8h-15.8c-2.7 0-5.1-1.5-6.4-3.8s-1.2-5.2.3-7.4L359.3 76c1.9-2.9 5.5-4.1 8.8-2.8a7.34 7.34 0 0 1 4.5 8.1l-8.9 49h12.2c2.7 0 5.2 1.5 6.5 3.9s1 5.3-.6 7.5l-52.3 73.2c-1.5 1.9-3.7 3-6 3zm8.1-72.1h12.9a7.16 7.16 0 0 1 5.9 3.1c1.4 1.9 1.7 4.4.9 6.6l-2.8 7.6 13.2-18.5h-6.8c-2.2 0-4.2-1-5.6-2.6-1.4-1.7-2-3.8-1.6-5.9l3.9-21.5-20 31.2z" fill="#333232"/><path d="M409.6 324.8c0-24.3-20.2-44-45.2-44s-45.2 19.7-45.2 44c0 13 5.8 24.6 15 32.7 5.2 4.6 8.1 11.3 8.9 18.2L345 394h38.8l1.9-18.2c.7-6.9 3.6-13.6 8.9-18.2 9.2-8.1 15-19.8 15-32.8z" fill="#ff8387"/><path d="M364.4 428.4c-9.5 0-17.2-7.7-17.2-17.2V394h34.5v17.2c-.1 9.5-7.8 17.2-17.3 17.2z" fill="#6b4f5b"/><g fill="#333232"><path d="M383.7 402.6H345c-4.4 0-8.1-3.3-8.6-7.7l-1.9-18.2c-.6-5.3-2.7-9.7-6-12.6-11.4-10-18-24.2-18-39.2 0-29 24.1-52.6 53.8-52.6s53.8 23.6 53.8 52.6c0 14.9-6.6 29.2-18 39.2-3.3 2.9-5.4 7.3-6 12.6l-1.9 18.2c-.3 4.3-4 7.7-8.5 7.7zm-31-17.3H376l1.1-10.5c1-9.6 5.2-18 11.8-23.8 7.7-6.7 12.1-16.2 12.1-26.2 0-19.5-16.4-35.3-36.6-35.3s-36.6 15.9-36.6 35.3c0 10 4.4 19.5 12.1 26.2 6.6 5.7 10.8 14.2 11.8 23.8l1 10.5z"/><path d="M364.4 437.1a25.91 25.91 0 0 1-25.9-25.9V394c0-4.8 3.9-8.6 8.6-8.6h34.5c4.8 0 8.6 3.9 8.6 8.6v17.2c0 14.3-11.6 25.9-25.8 25.9zm-8.7-34.5v8.6c0 4.7 3.9 8.6 8.6 8.6 4.8 0 8.6-3.9 8.6-8.6v-8.6h-17.2z"/><path d="M364.4 394c-4.8 0-8.6-3.9-8.6-8.6V348l-15.1-17.4c-3.1-3.6-2.7-9 .8-12.2 3.6-3.1 9-2.7 12.2.8l17.2 19.8c1.4 1.6 2.1 3.6 2.1 5.7v40.5c0 4.9-3.9 8.8-8.6 8.8z"/><path d="M364.4 350.9c-2.2 0-4.4-.8-6.1-2.5a8.57 8.57 0 0 1 0-12.2l17.2-17.2a8.627 8.627 0 1 1 12.2 12.2l-17.2 17.2c-1.7 1.6-3.9 2.5-6.1 2.5zm-228.8-84.1l4.2-14.3c.6-1.7 1.4-3.4 1.5-5.3l4.6-14.8 1.7-5.6 5-15.4c.9-1.5 1.3-3.1 1.6-4.8 1.8-3.7 3.4-7.4.7-11.4-.1-1-.2-2-.9-2.7l-2.2-8.4c-.2-.9-.5-1.9-.7-2.8l-1.9-8.5-.3-3.5v-52.5c0-1.2 0-2.3.1-3.5.9-5.1 2.1-10.1 4.4-14.8 3.1-4.9 7-9.1 11.9-12.2 8.1-4.6 16.9-6.4 26.2-6.1 2 .1 2.6.6 2.5 2.5-.1 3.8 0 7.7 0 11.6v45.5c0 1.9 0 3.7-.1 5.6-.1 1.7.4 2.4 2.1 2.1.9-.1 1.9-.1 2.8-.1 2.6.6 3.2-.5 2.5-2.8v-9.7c.3-1.5.3-2.9 0-4.3v-9.7c.3-1.4.4-2.9 0-4.3v-9.7c.3-1.5.4-2.9 0-4.3v-9.7c.3-1.4.4-2.9 0-4.3.1-.5.1-.9.2-1.4.2-7 .2-7.1 7-7 11.5.1 21.5 4.2 29.5 12.6.7.9 1.4 1.9 2.2 2.8l3 5.5 1.2 2.8 1.6 7.7c-.1 1.2-.1 2.4.5 3.5v10.5c-.3 1.2-.3 2.3 0 3.5a61.36 61.36 0 0 0 0 10.5c-.3 1.2-.3 2.3 0 3.5a61.36 61.36 0 0 0 0 10.5c-.3 1.2-.3 2.3 0 3.5a61.36 61.36 0 0 0 0 10.5c0 1.2-.1 2.3-.1 3.5l-3.1 13.5c-.4 1.6-.7 3.2-1.1 4.7-2.1 5.7-3.6 11.6-6.6 17-1.2 1.3-1.7 2.6-.5 4.2.7 3 1.6 5.9 2.9 8.7.2.6.3 1.2.5 1.9l2.6 8.3c.3 1 .7 1.9 1 2.9l2.8 9.1c.1.5.3.9.4 1.4.7 2.9 1.4 5.7 2.6 8.5 0 .8-.1 1.5.6 2.1.4 2.9 1.3 5.6 2.4 8.4.1 1.4.5 2.7 1.2 3.9.4 2.6 1.1 5.2 2.1 7.6.1.9 0 1.9.7 2.6.3 2.7 1.1 5.2 2.1 7.7.1 1 0 2 .8 2.8.3 2.9 1.2 5.7 2.2 8.4-.1 1 .2 2 .7 2.8.5 3.4 1.4 6.7 2.5 9.9.1.4.2.9.4 1.3.4 2.9 1.1 5.7 2.1 8.4-.1 1 .2 2 .7 2.8.4 2.9 1 5.7 2 8.4 0 1 0 2 .7 2.8.2 2.9 1.1 5.7 1.9 8.5.2 1.2 0 2.4.9 3.4.2 2.6.9 5.2 1.6 7.7.3 1.2.5 2.3.8 3.5.5 2.8.9 5.7 1.9 8.4 0 1-.1 2 .6 2.9l1.7 9.1.6 2.8 1.5 8.4c.2 1.2.5 2.3.7 3.5l1.4 8.4.6 3.5.7 9.8-.3 3.5c-2.9 11.8-9.8 19.8-21.6 23.5-1.4.4-3-.1-4.2 1.1h-9.8c-6.8-2.5-13.3-5.5-18-11.3l-1.5-2.1-3-6.3c-.4-1.2-.7-2.4-1.1-3.6l-1-9c-.1-1.2-.1-2.4-.2-3.5-.3-3-.2-6.1-1.1-9.1l-.3-3.5c-.3-3.1-.4-6.1-1.2-9.1l-.3-3.6-1.2-9c.1-1.2.1-2.4-.5-3.5.1-2.9-.6-5.7-1-8.6l-.6-3.3c-.2-3.1-.6-6.1-1.4-9.1.1-1 .2-2-.5-2.9-.1-3.1-.6-6.2-1.4-9.1 0-1.2 0-2.4-.5-3.5-.3-3.1-.7-6.1-1.6-9.1-.1-1-.2-1.9-.4-2.9-.5-3-.7-6.1-1.8-9-.1-1-.3-1.9-.4-2.9-.4-2.8-.7-5.7-1.7-8.4-.1-1.2.1-2.4-.7-3.5-.1-2.9-.8-5.6-1.6-8.4.1-1-.1-2-.6-2.8-.1-3-1-5.8-1.6-8.6-.2-1.1-.5-2.3-.7-3.4l-1.9-8.3c.1-1-.1-2-.7-2.8-.2-2.9-1-5.7-1.9-8.5-.8-5.1-2.1-10-3.8-14.9-1.9 7.1-4 14-5.1 21.2l-3.1 13.7c-.3 1.5-1 3-.8 4.6-1.3 4.4-2.1 8.8-2.8 13.3-.6 1.3-.9 2.7-.8 4.2-1.3 4.2-1.8 8.5-2.6 12.8-.3 1.6-.5 3.2-.8 4.7-1 4.2-1.8 8.4-2.2 12.6-.5 1.4-.9 2.7-.7 4.2-1.1 4.1-1.6 8.4-2.1 12.6-.2 1.4-.4 2.8-.7 4.2-.8 3.9-1.5 7.9-1.7 11.9-.7 1.3-.6 2.8-.5 4.2-1.1 3.9-1.3 8-1.8 12-.1 1.4-.2 2.7-.4 4.1-.9 3.9-1.3 7.9-1.5 11.9-.7 1.3-.6 2.8-.5 4.2-.9 3.8-.9 7.6-1.3 11.5-.1 1.3-.1 2.6-.2 4-.8 4.2-.9 8.5-2.2 12.6l-4.3 7.6-4.7 4.8c-.9.7-1.9 1.3-2.8 2-3.7 2.2-7.8 3.3-11.8 4.6h-9.8c-1.6-1.3-3.6-1.3-5.4-2-7.2-2.7-12.3-7.7-16.1-14.2-.2-.5-.5-1-.7-1.5l-2.3-7.6c-.1-1.2-.1-2.3-.2-3.5l1.1-11.3.6-4.1 2.4-12.9c.3-1.6.5-3.1.8-4.7l2.7-12.8.9-4.8c1.3-4.4 2.3-8.8 2.9-13.3.8-1.5.9-3.3 1.2-4.9l3-13.3c.8-1.5 1-3.2 1.3-4.9l3.3-13.4c.5-1.6 1.2-3.1 1.1-4.9 1.6-4.6 2.7-9.3 3.7-14.1.7-1.6 1.2-3.2 1.2-4.9 1.7-4.8 3-9.8 4.1-14.7.6-1.2 1.1-2.8 1.3-4.5zm38.7-119.4c4.8.2 4.8.2 4.5-4.1.3-1.4.3-2.9 0-4.3v-9.7c.3-1.4.4-2.9-.1-4.3.4-3.2.3-6.5.1-9.7.3-1.4.3-2.9 0-4.3.3-3.2.3-6.5 0-9.7.2-1.4.9-3.4-.3-4.2s-2.8.6-4.1 1.3c-5.9 3.2-9.4 8-9.9 14.8-1 3.5-.6 7-.5 10.5-.3 1.4-.3 2.9 0 4.3v9.7a7.31 7.31 0 0 0 0 3.6c-.5 7-.5 7 6 6.3.2 0 .5-.1.7-.1 1.2-.1 2.4-.1 3.6-.1zm53.5-42.8c-2-3.9-5.6-5.8-9.3-7.5-1.8-.8-2.2-.1-2.1 1.6l.1 15v31.5c-.1 1-.5 2.1 1.2 2.1 4.5 0 8.9-.3 13.4 1v-29.7c0-1.2 0-2.3-.1-3.5.2-3-.5-5.8-2-8.4 0-.9-.5-1.6-1.2-2.1zM166 178.3c.2.9.5 1.9.7 2.8.6 2.9 1.2 5.8 2.5 8.5.1.7 0 1.5.7 2.1 1.1 2.8 1 6.3 4.4 8 1.4.4 2.8.3 4.3 0a53.47 53.47 0 0 0 9.8 0c1.2.4 2-.4 2.9-.9 13.6-7.7 23.4-18.9 30.9-32.4l.8-1.1c1.8-2.4 1.3-3.3-1.7-3-2.7.2-5.5.2-8.3.2a7.31 7.31 0 0 0-3.6 0c-3.5-.2-7-.3-10.5 0a7.31 7.31 0 0 0-3.6 0c-3.5-.2-7-.3-10.5 0a7.31 7.31 0 0 0-3.6 0c-4.1-.2-8.1-.6-12.1.3-3.8.9-5.7 4.2-4.8 8l1.7 7.5zm38.5 36.5c5.9 22.5 11 44.7 15.5 67 8.5 42.9 15.2 86 19 129.5.7 8 8.4 14 16.3 13 8.7-1.1 14.5-8.2 13.4-16.6l-1.9-13.2c-6.5-36.1-14.8-71.7-24.3-107.1-6.3-23.4-13.1-46.7-20.9-69.7-.4-1.3-.3-3.1-2.6-3-4.8.2-9.5.1-14.5.1zM119 408.9c-.4 8.2 6 15 14.3 15.6 7.6.6 14.9-5.4 15.6-13.1 1.5-18.4 3.8-36.7 6.3-55 4.5-32.4 10.3-64.5 17.3-96.5 3.1-14.1 6.4-28.2 10.2-42.2.7-2.4.1-3-2.2-2.9-3.3.2-6.6.5-9.8-.1-3.1-.6-3.6.8-4.4 3.1-16.6 50.3-30 101.4-40.6 153.2-2.6 12.7-5 25.4-6.7 37.9zm96.7-209.3c2.4-.1 5.3 1.6 6.7-.7 2.2-3.5 3.5-7.5 4.1-11.7-3.4 4.2-7 8.3-10.8 12.4z"/></g><path d="M204.5 214.8h14.4c2.3-.1 2.2 1.7 2.6 3 7.7 23 14.6 46.3 20.9 69.7 9.5 35.4 17.8 71.1 24.3 107.1.8 4.4 1.4 8.8 2 13.2 1.1 8.4-4.6 15.4-13.4 16.6-7.8 1-15.6-5.1-16.3-13-3.8-43.6-10.5-86.7-19-129.5-4.5-22.4-9.7-44.5-15.5-67.1zM119 408.9c1.6-12.5 4.1-25.2 6.7-37.9 10.6-51.8 24-102.9 40.6-153.2.8-2.3 1.3-3.7 4.4-3.1 3.2.6 6.5.3 9.8.1 2.4-.1 2.9.5 2.2 2.9-3.8 14-7.1 28.1-10.2 42.2-7 31.9-12.8 64.1-17.3 96.5-2.5 18.3-4.8 36.6-6.3 55-.6 7.7-7.9 13.7-15.6 13.1-8.3-.7-14.7-7.4-14.3-15.6z" fill="#10c1d8"/><path d="M198.8 147.4c.3-1.4 1.1-2.3 2.5-2.8.7 2.2.1 3.4-2.5 2.8z" fill="#d3d3d3"/><path d="M364 264.2c-5.7 0-10.3-4.6-10.3-10.3V240c0-5.7 4.6-10.3 10.3-10.3s10.3 4.6 10.3 10.3v13.9c0 5.7-4.6 10.3-10.3 10.3zm-43.2 16.5c-2.6 0-5.3-1-7.3-3l-9.9-9.9c-4-4-4-10.6 0-14.6s10.6-4 14.6 0l9.9 9.9c4 4 4 10.6 0 14.6-2 2-4.7 3-7.3 3zm87.2-.8c-2.6 0-5.3-1-7.3-3-4-4-4-10.6 0-14.6l9.9-9.9c4-4 10.6-4 14.6 0s4 10.6 0 14.6l-9.9 9.9c-2.1 2-4.7 3-7.3 3z" fill="#333232"/><text transform="translate(-55.5 129.5)" font-family="ArialMT" font-size="12">J</text></svg>