<svg id="Layer_1" data-name="Layer 1" xmlns="http://www.w3.org/2000/svg" viewBox="0 0 333.27 498.92"><defs><style>.cls-1{fill:#2f4054;}.cls-2{fill:#56bfd5;}.cls-3{fill:#f08a8a;}</style></defs><title>fridge</title><g id="Fill_out_line" data-name="Fill out line"><path class="cls-1" d="M144,472.9h33.33v24.94H144Z" transform="translate(-94.05 -7.24)"/><path class="cls-1" d="M344,472.9h33.32v24.94H344Z" transform="translate(-94.05 -7.24)"/><path class="cls-2" d="M119.05,15.55H402.33A16.65,16.65,0,0,1,419,32.18V456.27a16.65,16.65,0,0,1-16.66,16.63H119.05a16.65,16.65,0,0,1-16.67-16.63V32.18A16.65,16.65,0,0,1,119.05,15.55Z" transform="translate(-94.05 -7.24)"/><path class="cls-3" d="M298.18,65.44h0a12.49,12.49,0,0,1,12.5,12.48V252.54A12.49,12.49,0,0,1,298.18,265h0a12.49,12.49,0,0,1-12.5-12.47V77.92A12.49,12.49,0,0,1,298.18,65.44Z" transform="translate(-94.05 -7.24)"/><path class="cls-3" d="M223.19,65.44h0a12.49,12.49,0,0,1,12.5,12.48V252.54A12.48,12.48,0,0,1,223.19,265h0a12.48,12.48,0,0,1-12.49-12.47V77.92A12.49,12.49,0,0,1,223.19,65.44Z" transform="translate(-94.05 -7.24)"/><path class="cls-3" d="M127.38,115.34H185.7v91.47H127.38Z" transform="translate(-94.05 -7.24)"/><path d="M402.33,7.24H119.05a25,25,0,0,0-25,24.94V456.27a25,25,0,0,0,25,24.94h16.66v16.63a8.32,8.32,0,0,0,8.33,8.32h33.33a8.32,8.32,0,0,0,8.33-8.32V481.21h150v16.63a8.32,8.32,0,0,0,8.34,8.32h33.32a8.32,8.32,0,0,0,8.33-8.32V481.21h16.67a25,25,0,0,0,25-24.94V32.18A25,25,0,0,0,402.33,7.24Zm8.33,24.94V298.27H269V23.87H402.33A8.33,8.33,0,0,1,410.66,32.18ZM119.05,23.87H252.36v274.4H110.72V32.18A8.32,8.32,0,0,1,119.05,23.87Zm50,465.66H152.37v-8.32H169Zm200,0H352.34v-8.32H369Zm33.33-24.95H119.05a8.32,8.32,0,0,1-8.33-8.31V314.91H410.66V456.27A8.33,8.33,0,0,1,402.33,464.58Z" transform="translate(-94.05 -7.24)"/><path d="M298.18,273.33A20.83,20.83,0,0,0,319,252.54V77.92a20.83,20.83,0,0,0-41.66,0V252.54A20.83,20.83,0,0,0,298.18,273.33ZM294,77.92a4.17,4.17,0,0,1,8.34,0V252.54a4.17,4.17,0,0,1-8.34,0Z" transform="translate(-94.05 -7.24)"/><path d="M347.43,331.2h-175a20.79,20.79,0,1,0,0,41.58h175a20.79,20.79,0,1,0,0-41.58Z" transform="translate(-94.05 -7.24)"/><path d="M223.19,273.33A20.83,20.83,0,0,0,244,252.54V77.92a20.83,20.83,0,0,0-41.65,0V252.54A20.82,20.82,0,0,0,223.19,273.33ZM219,77.92a4.17,4.17,0,0,1,8.33,0V252.54a4.17,4.17,0,0,1-8.33,0Z" transform="translate(-94.05 -7.24)"/><path d="M127.38,215.12H185.7a8.32,8.32,0,0,0,8.33-8.31V115.34A8.32,8.32,0,0,0,185.7,107H127.38a8.32,8.32,0,0,0-8.33,8.32v91.47A8.32,8.32,0,0,0,127.38,215.12Zm8.33-91.47h3.18L144,133.93v23a8.32,8.32,0,0,0,8.33,8.32h8.34a8.32,8.32,0,0,0,8.33-8.32v-23l5.15-10.28h3.18v74.84H135.71Z" transform="translate(-94.05 -7.24)"/><path class="cls-3" d="M178.35,343.21H341.54c6.43,0,11.65,3.93,11.65,8.78h0c0,4.85-5.22,8.78-11.65,8.78H178.35c-6.44,0-11.66-3.93-11.66-8.78h0C166.69,347.14,171.91,343.21,178.35,343.21Z" transform="translate(-94.05 -7.24)"/></g></svg>