<?xml version="1.0" encoding="utf-8"?>
<!-- Generator: Adobe Illustrator 24.0.3, SVG Export Plug-In . SVG Version: 6.00 Build 0)  -->
<svg version="1.1" id="Layer_1" xmlns="http://www.w3.org/2000/svg" xmlns:xlink="http://www.w3.org/1999/xlink" x="0px" y="0px"
	 viewBox="0 0 512 512" style="enable-background:new 0 0 512 512;" xml:space="preserve">
<style type="text/css">
	.st0{fill:#EDF2FA;}
	.st1{fill:#55BFD5;}
	.st2{fill:#F08A8A;}
</style>
<path class="st0" d="M462,10H210c-22.1,0-40,17.9-40,40v306c0,22.1,17.9,40,40,40h252c22.1,0,40-17.9,40-40V50
	C502,27.9,484.1,10,462,10z"/>
<path class="st1" d="M236,10h200v115.7c0,52.2-38.2,98.9-90.2,103.8C286.2,235.2,236,188.5,236,130C236,123.4,236,17.1,236,10z"/>
<path class="st2" d="M336,70c33.1,0,60,26.9,60,60s-26.9,60-60,60s-60-26.9-60-60S302.9,70,336,70z"/>
<path class="st1" d="M396,270H276c-22.1,0-40,17.9-40,40v86h40v40h40v-40h40v40h40v-40h40v-86C436,287.9,418.1,270,396,270z"/>
<path class="st2" d="M89.8,175l0.2,1v140c0,11.1,8.9,20,20,20c11,0,20-9,20-20V126L89.8,175z"/>
<path class="st2" d="M396,333c0,11-9,20-20,20s-20-9-20-20s9-20,20-20S396,322,396,333z"/>
<path class="st2" d="M316,333c0,11-9,20-20,20s-20-9-20-20s9-20,20-20S316,322,316,333z"/>
<path class="st0" d="M80,76c-14.2,0-55.7,0-70,0v100h70c27.5,0,50-22.3,50-50C130,98.4,107.6,76,80,76z"/>
<path d="M336,200c38.6,0,70-31.4,70-70s-31.4-70-70-70s-70,31.4-70,70S297.4,200,336,200z M336,80c27.6,0,50,22.4,50,50
	s-22.4,50-50,50s-50-22.4-50-50S308.4,80,336,80z"/>
<path d="M296,303c-16.5,0-30,13.5-30,30s13.5,30,30,30s30-13.5,30-30S312.5,303,296,303z M296,343c-5.5,0-10-4.5-10-10s4.5-10,10-10
	s10,4.5,10,10S301.5,343,296,343z"/>
<path d="M376,303c-16.5,0-30,13.5-30,30s13.5,30,30,30s30-13.5,30-30S392.5,303,376,303z M376,343c-5.5,0-10-4.5-10-10s4.5-10,10-10
	s10,4.5,10,10S381.5,343,376,343z"/>
<path d="M180,210c0,5.5-4.5,10-10,10s-10-4.5-10-10s4.5-10,10-10S180,204.5,180,210z"/>
<path d="M462,0H210c-27.6,0-50,22.4-50,50v120c0,5.5,4.5,10,10,10s10-4.5,10-10V50c0-16.5,13.5-30,30-30h16v110
	c0,63.4,54.3,115.8,120.8,109.5c56.7-5.4,99.2-55.9,99.2-113.8V20h16c16.5,0,30,13.5,30,30v306c0,16.5-13.5,30-30,30h-16v-76
	c0-27.6-22.4-50-50-50H276c-27.6,0-50,22.4-50,50v76h-16c-16.5,0-30-13.5-30-30V250c0-5.5-4.5-10-10-10s-10,4.5-10,10v106
	c0,27.6,22.4,50,50,50h56v30c0,5.5,4.5,10,10,10h10v16c0,16.5-13.5,30-30,30H150c-16.5,0-30-13.5-30-30V344.3c11.4-4,20-15,20-28.3
	V126c0-33.1-26.9-60-60-60H10C4.5,66,0,70.5,0,76v100c0,5.5,4.5,10,10,10h70v130c0,13,8.4,24.2,20,28.3V462c0,27.6,22.4,50,50,50
	h106c27.6,0,50-22.4,50-50v-16h10c5.5,0,10-4.5,10-10v-30h20v30c0,5.5,4.5,10,10,10h10v56c0,5.5,4.5,10,10,10s10-4.5,10-10v-56h10
	c5.5,0,10-4.5,10-10v-30h56c27.6,0,50-22.4,50-50V50C512,22.4,489.6,0,462,0z M426,40h-30c-5.5,0-10,4.5-10,10s4.5,10,10,10h30v65.7
	c0,48.3-35.6,89.5-81.1,93.9c-54.7,5.2-98.9-37.9-98.9-89.6V60h30c5.5,0,10-4.5,10-10s-4.5-10-10-10h-30V20h180V40z M40,166H20V86
	h20V166z M80,166H60V86h20c22.1,0,40,17.9,40,40C120,148.2,102,166,80,166z M110,326c-5.5,0-10-4.5-10-10V182.6
	c7.4-2.6,14.1-6.6,20-11.9V316C120,321.5,115.5,326,110,326z M306,426h-20v-20h20V426z M386,426h-20v-20h20V426z M426,386H246v-76
	c0-16.5,13.5-30,30-30h120c16.5,0,30,13.5,30,30V386z"/>
</svg>
