<?xml version="1.0" encoding="utf-8"?>
<!-- Generator: Adobe Illustrator 24.0.3, SVG Export Plug-In . SVG Version: 6.00 Build 0)  -->
<svg version="1.1" id="Layer_1" xmlns="http://www.w3.org/2000/svg" xmlns:xlink="http://www.w3.org/1999/xlink" x="0px" y="0px"
	 viewBox="0 0 512 512" style="enable-background:new 0 0 512 512;" xml:space="preserve">
<style type="text/css">
	.st0{fill:#009D54;}
	.st1{fill:#F08A8A;}
	.st2{fill:#1A9663;}
	.st3{fill:#ECEFF0;}
	.st4{fill:#7BD7EF;}
	.st5{fill:#AEDEF8;}
	.st6{fill:#FCC200;}
	.st7{fill:#00A8E7;}
	.st8{fill:#D1E1E5;}
	.st9{fill:#55BFD5;}
	.st10{fill:#42A87E;}
</style>
<g id="Filled-Outline">
	<path class="st0" d="M408,320v24c0,4.4,3.6,8,8,8s8-3.6,8-8v-24c4.4,0,8-3.6,8-8s-3.6-8-8-8h-16c-4.4,0-8,3.6-8,8
		S403.6,320,408,320z"/>
	<path class="st0" d="M424,432v-24c0-4.4-3.6-8-8-8s-8,3.6-8,8v24c-4.4,0-8,3.6-8,8s3.6,8,8,8h16c4.4,0,8-3.6,8-8S428.4,432,424,432
		z"/>
	<path class="st0" d="M480,360c-4.4,0-8,3.6-8,8h-24c-4.4,0-8,3.6-8,8s3.6,8,8,8h24c0,4.4,3.6,8,8,8s8-3.6,8-8v-16
		C488,363.6,484.4,360,480,360z"/>
	<path class="st0" d="M384,384c4.4,0,8-3.6,8-8s-3.6-8-8-8h-24c0-4.4-3.6-8-8-8s-8,3.6-8,8v16c0,4.4,3.6,8,8,8s8-3.6,8-8H384z"/>
	<circle class="st1" cx="416" cy="376" r="32"/>
	<path class="st0" d="M458.3,402.3l-2.3,2.4L444.3,393c-3.4-2.9-8.4-2.5-11.3,0.9c-2.6,3-2.6,7.4,0,10.4l11.7,11.7l-2.4,2.3
		c-3.1,3.1-3.1,8.2,0,11.3s8.2,3.1,11.3,0l16-16c3.1-3.1,3.1-8.2,0-11.3S461.5,399.2,458.3,402.3z"/>
	<path class="st0" d="M433,359c3.1,3.1,8.2,3.1,11.3,0l11.7-11.7l2.3,2.4c3.1,3.1,8.2,3.1,11.3,0s3.1-8.2,0-11.3l-16-16
		c-3.1-3.1-8.2-3.1-11.3,0s-3.1,8.2,0,11.3l2.4,2.3L433,347.7C429.9,350.8,429.9,355.9,433,359z"/>
	<path class="st0" d="M368,352c2.1,0,4.2-0.8,5.7-2.3l2.3-2.4l11.7,11.7c3.4,2.9,8.4,2.5,11.3-0.9c2.6-3,2.6-7.4,0-10.4L387.3,336
		l2.4-2.3c3.1-3.1,3.1-8.2,0-11.3s-8.2-3.1-11.3,0l-16,16c-3.1,3.1-3.1,8.2,0,11.3C363.8,351.2,365.9,352,368,352z"/>
	<path class="st0" d="M399,393c-3.1-3.1-8.2-3.1-11.3,0L376,404.7l-2.3-2.4c-3.1-3.1-8.2-3.1-11.3,0s-3.1,8.2,0,11.3l16,16
		c3.1,3.1,8.2,3.1,11.3,0s3.1-8.2,0-11.3l-2.4-2.3l11.7-11.7C402.1,401.2,402.1,396.1,399,393z"/>
	<path class="st2" d="M416,416c-22.1,0-40-17.9-40-40s17.9-40,40-40s40,17.9,40,40S438.1,416,416,416z M416,352
		c-13.3,0-24,10.7-24,24s10.7,24,24,24s24-10.7,24-24S429.3,352,416,352z"/>
	<path class="st3" d="M208,56l-4.4-8.8C196.5,33,182,24,166.1,24h-4.2c-15.9,0-30.4,9-37.5,23.2c-2.9,5.8-4.4,12.2-4.4,18.7V112
		l-40,16l-32,96l32,32v168l16,8v56h64v-24l-16-8v-24l16-8l16-80v80l16,8v56h64v-24l-16-8v-24l16-8V256l80-56l8,8l32-24l-24-32
		l-32,16l-32,16l-32-56l-48-16V56z"/>
	<circle class="st1" cx="420.4" cy="227.9" r="16"/>
	<circle class="st1" cx="408" cy="40" r="16"/>
	<circle class="st1" cx="472" cy="472" r="16"/>
	<circle class="st1" cx="304" cy="384" r="16"/>
	<circle class="st1" cx="304.4" cy="82.6" r="16"/>
	<g>
		<circle class="st4" cx="360" cy="48" r="8"/>
		<circle class="st4" cx="248" cy="32" r="8"/>
	</g>
	<path class="st5" d="M184,80l-8,8h-16v16c0,0,0,16,24,16s24-16,24-16V88h-16L184,80z"/>
	<path class="st6" d="M120,80c-4.4,0-8-3.6-8-8s3.6-8,8-8h32c4.4,0,8,3.6,8,8s-3.6,8-8,8H120z"/>
	<path class="st7" d="M176,352c-4.4,0-8-3.6-8-8V120c0-4.4,3.6-8,8-8s8,3.6,8,8v224C184,348.4,180.4,352,176,352z"/>
	<path class="st7" d="M248,216H104c-4.4,0-8-3.6-8-8s3.6-8,8-8h144c4.4,0,8,3.6,8,8S252.4,216,248,216z"/>
	<path class="st8" d="M248,264c-4.4,0-8-3.6-8-8v-80c0-4.4,3.6-8,8-8s8,3.6,8,8v80C256,260.4,252.4,264,248,264z"/>
	<path class="st9" d="M192,432h48v24l16,8v24h-64V432z"/>
	<path class="st9" d="M96,432h48v24l16,8v24H96V432z"/>
	<path class="st9" d="M344,208l-24-40l32-16l24,32L344,208z"/>
	<path class="st9" d="M48,312h24c13.3,0,24,10.7,24,24v152l0,0H24l0,0V336C24,322.7,34.7,312,48,312z"/>
	<path class="st9" d="M48,288h24v24H48V288z"/>
	<path class="st6" d="M160,288c-4.4,0-8-3.5-8-8c0-2.9,1.5-5.6,4-7l168-96c3.9-2.2,8.8-0.9,11,3c2.2,3.9,0.9,8.8-3,11l-168,96
		C162.8,287.7,161.4,288,160,288z"/>
	<path class="st6" d="M360,168c-4.4,0-8-3.6-8-8c0-2.1,0.8-4.2,2.3-5.7l24-24c1.5-1.5,3.5-2.3,5.7-2.3h16c4.4,0,8,3.6,8,8
		s-3.6,8-8,8h-12.7l-21.6,21.7C364.2,167.2,362.1,168,360,168z"/>
	<path class="st10" d="M100,408c-24.3,0-44-19.7-44-44v-52c0-4.4,3.6-8,8-8s8,3.6,8,8v52c0,15.5,12.5,28,28,28s28-12.5,28-28v-44
		c0-4.4,3.6-8,8-8s8,3.6,8,8v44C144,388.3,124.3,408,100,408z"/>
	<path class="st5" d="M488,144h-56c-4.4,0-8-3.6-8-8s3.6-8,8-8h56c4.4,0,8,3.6,8,8S492.4,144,488,144z"/>
	<path class="st5" d="M424,120c-4.4,0-8-3.6-8-8c0-3,1.7-5.8,4.4-7.2l48-24c4-2,8.8-0.4,10.7,3.6c2,4,0.4,8.8-3.6,10.7l-48,24
		C426.5,119.7,425.2,120,424,120z"/>
	<path class="st5" d="M472,192c-1.2,0-2.5-0.3-3.6-0.8l-48-24c-4-2-5.6-6.8-3.6-10.7c2-4,6.8-5.6,10.7-3.6l48,24
		c4,2,5.6,6.8,3.6,10.7C477.8,190.3,475,192,472,192z"/>
	<path class="st5" d="M199.8,55.8L168,55.9c-8.8,0-16,7.2-16,16c0,0,0,0,0,0c0,8.8,7.2,16,16,16h8l8-8l8,8l8-0.1
		c8.8-0.1,15.9-7.2,15.9-16c0-8.8-7.1-16-16-16C199.9,55.8,199.8,55.8,199.8,55.8z"/>
	<path class="st7" d="M176,96h-8c-13.3,0-24.1-10.7-24.1-24s10.7-24.1,24-24.1l31.8-0.1h0.1c13.3,0,24,10.7,24,24
		c0,13.2-10.6,23.9-23.8,24.1l-8,0.1h0c-2.1,0-4.2-0.8-5.7-2.3l-2.3-2.3l-2.3,2.3C180.2,95.2,178.1,96,176,96L176,96z M199.8,63.8
		L168,63.9c-4.4,0-8,3.6-8,8c0,4.4,3.6,8,8,8h4.7l5.6-5.7c3.1-3.1,8.2-3.1,11.3,0c0,0,0,0,0,0l5.6,5.7h4.6c4.5-0.1,8-3.7,7.9-8.2
		c0-2.1-0.9-4.1-2.4-5.6C204,64.7,201.9,63.9,199.8,63.8L199.8,63.8z"/>
	<path class="st8" d="M136,328h-0.6c-2.3-0.2-4.4-1.3-5.8-3.2l-23.7-31.5l-31.6-31.6c-3.1-3.1-3.1-8.2,0-11.3
		c3.1-3.1,8.2-3.1,11.3,0l32,32c0.3,0.3,0.5,0.6,0.7,0.9l18.5,24.6l19.8-19.8l-18.4-18.3c-1.5-1.5-2.3-3.5-2.3-5.7v-12.7l-37.7-37.6
		c-2-2-2.8-4.9-2.1-7.6l8-32c1.1-4.3,5.5-6.8,9.8-5.7c4.2,1.1,6.7,5.3,5.7,9.5l-6.9,27.6l36.8,36.8c1.5,1.5,2.3,3.5,2.3,5.7v12.7
		l21.7,21.6c3.1,3.1,3.1,8.2,0,11.3c0,0,0,0,0,0l-32,32C140.2,327.2,138.1,328,136,328L136,328z"/>
	<path class="st9" d="M112,288l32-24l24,24l-32,32L112,288z"/>
	<path d="M348.8,214.4l32-24c3.5-2.7,4.3-7.7,1.6-11.2l-13-17.3l17.9-17.9H400c4.4,0,8-3.6,8-8s-3.6-8-8-8h-16
		c-2.1,0-4.2,0.8-5.7,2.3L359.7,149l-1.3-1.8c-2.3-3.1-6.5-4.1-10-2.4l-57.2,28.6L263,124c-1-1.7-2.6-3-4.4-3.6L216,106.2V89.6
		c10.4-9.2,10.5-26.7-0.3-35.9c0.1-0.5-4.6-9.5-4.9-10.2c-9.1-18.5-28.5-28.8-48.9-27.6C134.3,16,112,38.3,112,65.8c0,0,0,0,0,0
		v40.7l-35,14c-2.2,0.9-3.9,2.7-4.6,4.9l-32,96c-1,2.9-0.2,6,1.9,8.2L72,259.3V280H48c-4.4,0-8,3.6-8,8v17c-14.1,3.7-24,16.4-24,31
		v152c0,4.4,3.6,8,8,8h136c4.4,0,8-3.6,8-8v-6.1c0-12.2-6-23.6-16-30.4v-13.2l23.1-5.8l8.9,4.5V488c0,4.4,3.6,8,8,8h64
		c4.4,0,8-3.6,8-8v-6.1c0-12.2-6-23.6-16-30.4v-14.5l11.6-5.8c2.7-1.4,4.4-4.1,4.4-7.2V260.2l71.1-49.8l3.2,3.3
		C341.2,216.5,345.6,216.8,348.8,214.4L348.8,214.4z M349.6,162.1l15.2,20.3l-20,15l-2.2-2.2l-11.8-23.7L349.6,162.1z M156.7,288
		l-19.8,19.8l-13.7-18.2l20-15L156.7,288z M72,320c8.8,0,16,7.2,16,16v53.3c-9.8-4.6-16-14.5-16-25.3V320z M88,308.3v-33l17.9,17.9
		l22.1,29.4V364c0,13.9-10.2,25.7-24,27.7V336C104,324.6,97.9,314,88,308.3z M161.3,270l-9.3-9.3V248c0-2.1-0.8-4.2-2.3-5.7
		L123.3,216H168v50.2L161.3,270z M184,216h64v4.5l-64,36.6V216z M264,229.8l60.6-34.7l1.1,2.3L264,240.6V229.8z M250.6,134.6
		l30.5,53.4c2.1,3.7,6.7,5.1,10.5,3.2l24.8-12.4l1,2.1L264,211.4V176c-0.4-10.6-15.6-10.6-16,0v24h-64v-72c11.9,0,19.4-3.3,24.1-7.6
		L250.6,134.6z M199.8,63.8h0.2v16.1c-0.1,0-4.6,0-4.7,0.1l-5.6-5.6c-3.1-3.1-8.2-3.1-11.3,0c0,0,0,0,0,0l-5.6,5.7H168
		c-10.6-0.4-10.6-15.6,0-16.1L199.8,63.8z M176,96c2.1,0,4.2-0.8,5.7-2.3l2.3-2.3l2.3,2.3c1.5,1.5,3.5,2.3,5.7,2.3h8v7.8
		c-0.1,1.5-1.5,8.2-16,8.2s-15.9-6.7-16-8.2V96H176z M131.6,50.7C137.3,39.2,149,32,161.9,32c13.4-0.9,25.7,4.4,32.9,15.8l-26.8,0.1
		c-10.1,0.1-19.2,6.4-22.6,16h-17.3C128.3,59.3,129.5,54.9,131.6,50.7L131.6,50.7z M86.4,134l36.6-14.6c3-1.2,5-4.2,5-7.4V80h17.4
		c1.3,3.8,3.6,7.2,6.6,9.8V104c0,0.2,0.2,15.1,16,21.3V200h-53.8l5.5-22.1c2.2-10.4-12.6-14.1-15.5-3.9l-8,32
		c-0.7,2.7,0.1,5.6,2.1,7.6l37.7,37.7v8.7l-23.2,17.4c-13.8-13.8-41.7-41.8-55.6-55.6L86.4,134z M56,296h16v8H56V296z M32,336
		c0-8.8,7.2-16,16-16h8v44c0,19.7,13.1,36.9,32,42.3V480H32V336z M104,480v-40h32v16c0,3,1.7,5.8,4.4,7.2
		c6.5,3.2,10.9,9.6,11.5,16.8H104z M168,417.8l-25,6.2h-39v-16.2c22.6-2.1,40-21.1,40-43.8v-40.7l24-24V417.8z M200,480v-40h32v16
		c0,3,1.7,5.8,4.4,7.2c6.5,3.2,10.9,9.6,11.5,16.8H200z M248,419.1l-9.9,4.9h-44.2l-9.9-4.9V275.5l64-36.6V419.1z M453.7,429.7
		l16-16c3.1-3.1,3.1-8.2,0-11.3s-8.2-3.1-11.3,0l-2.3,2.4l-6.6-6.7c2.8-4.2,4.8-9,5.8-14H472c0.4,10.6,15.6,10.6,16,0v-16
		c-0.4-10.6-15.6-10.6-16,0h-16.8c-1-5-3-9.8-5.8-14l6.6-6.6l2.3,2.4c3.1,3.1,8.2,3.1,11.3,0s3.1-8.2,0-11.3l-16-16
		c-3.1-3.1-8.2-3.1-11.3,0s-3.1,8.2,0,11.3l2.4,2.3l-6.7,6.6c-4.2-2.8-9-4.8-14-5.8V320c10.6-0.4,10.6-15.6,0-16h-16
		c-10.6,0.4-10.6,15.6,0,16v16.8c-5,1-9.8,3-14,5.8l-6.7-6.6l2.4-2.3c3.1-3.1,3.1-8.2,0-11.3s-8.2-3.1-11.3,0l-16,16
		c-3.1,3.1-3.1,8.2,0,11.3s8.2,3.1,11.3,0l2.3-2.4l6.6,6.6c-2.8,4.2-4.8,9-5.8,14H360c-0.4-10.6-15.6-10.6-16,0v16
		c0.4,10.6,15.6,10.6,16,0h16.8c1,5,3,9.8,5.8,14l-6.6,6.7l-2.3-2.4c-3.1-3.1-8.2-3.1-11.3,0s-3.1,8.2,0,11.3l16,16
		c3.1,3.1,8.2,3.1,11.3,0s3.1-8.2,0-11.3l-2.4-2.3l6.6-6.6c4.2,2.8,9,4.8,14,5.8V432c-10.6,0.4-10.6,15.6,0,16h16
		c10.6-0.4,10.6-15.6,0-16v-16.8c5-1,9.8-3,14-5.8l6.6,6.6l-2.4,2.3C435.1,426.1,445.9,436.9,453.7,429.7L453.7,429.7z M416,400
		c-13.3,0-24-10.7-24-24c1.3-31.8,46.7-31.8,48,0C440,389.3,429.3,400,416,400z M396.4,227.9c0,13.3,10.7,24,24,24
		c31.8-1.3,31.8-46.7,0-48C407.1,203.9,396.4,214.6,396.4,227.9L396.4,227.9z M428.4,227.9c0,4.4-3.6,8-8,8
		c-10.6-0.4-10.6-15.6,0-16C424.8,219.9,428.4,223.5,428.4,227.9z M408,64c13.3,0,24-10.7,24-24c-1.3-31.8-46.7-31.8-48,0
		C384,53.3,394.7,64,408,64z M408,32c4.4,0,8,3.6,8,8c-0.4,10.6-15.6,10.6-16,0C400,35.6,403.6,32,408,32z M472,448
		c-13.3,0-24,10.7-24,24c1.3,31.8,46.7,31.8,48,0C496,458.7,485.3,448,472,448z M472,480c-4.4,0-8-3.6-8-8c0.4-10.6,15.6-10.6,16,0
		C480,476.4,476.4,480,472,480z M304,360c-13.3,0-24,10.7-24,24c1.3,31.8,46.7,31.8,48,0C328,370.7,317.3,360,304,360z M304,392
		c-4.4,0-8-3.6-8-8c0.4-10.6,15.6-10.6,16,0C312,388.4,308.4,392,304,392z M304.4,106.6c13.3,0,24-10.7,24-24
		c-1.3-31.8-46.7-31.8-48,0C280.4,95.8,291.1,106.6,304.4,106.6z M304.4,74.6c4.4,0,8,3.6,8,8c-0.4,10.6-15.6,10.6-16,0
		C296.4,78.2,299.9,74.6,304.4,74.6z M344,277.4c0-4.4,3.6-8,8-8c10.6,0.4,10.6,15.6,0,16C347.6,285.4,344,281.9,344,277.4z M352,48
		c0-4.4,3.6-8,8-8c10.6,0.4,10.6,15.6,0,16C355.6,56,352,52.4,352,48z M240,32c0-4.4,3.6-8,8-8c10.6,0.4,10.6,15.6,0,16
		C243.6,40,240,36.4,240,32z M496,136c0,4.4-3.6,8-8,8h-56c-4.4,0-8-3.6-8-8s3.6-8,8-8h56C492.4,128,496,131.6,496,136z
		 M420.4,104.8l48-24c9.6-4.4,16.5,9.2,7.2,14.3l-48,24c-4,2-8.8,0.4-10.7-3.6C414.9,111.6,416.5,106.8,420.4,104.8z M479.2,187.6
		c-2,4-6.8,5.6-10.7,3.6c0,0,0,0,0,0l-48-24c-4-2-5.6-6.8-3.6-10.7c2-4,6.8-5.6,10.7-3.6l48,24C479.5,178.8,481.1,183.6,479.2,187.6
		C479.2,187.6,479.2,187.6,479.2,187.6L479.2,187.6z"/>
</g>
</svg>
