<svg xmlns="http://www.w3.org/2000/svg" viewBox="0 0 512 512"><style><![CDATA[.I{fill:#10c1d8}.J{opacity:.1}.K{enable-background:new}]]></style><g class="I"><path d="M340.3 241.3c3.8-6.7 11-11.3 19.3-11.3 3.7 0 7.1.9 10.1 2.5 1.4-2.2 3-4.3 5-6.3 4.1-4.2 9.1-7.1 14.3-8.7-2.6-16.8-17-29.6-34.4-29.6-18.8 0-34.2 15-34.7 33.8 10.1 2 18 9.7 20.4 19.6z"/><path d="M450.3 250.6c-4.8-4.8-11-7.4-17.2-7.7-1.4-6.1-4.5-11.8-9.2-16.6-13.6-13.6-35.5-13.6-49.1 0-1.9 1.9-3.6 4-5 6.3 7.2 3.7 12.1 11.3 12.1 20H393c10.8 0 19.6 8.7 19.8 19.5h45c.8-7.7-1.7-15.7-7.5-21.5z"/><path d="M285.9 251a4.95 4.95 0 0 1 5 5v16h121.9c-.2-10.8-9-19.5-19.8-19.5h-11.1c0-12.4-10-22.4-22.3-22.4-8.3 0-15.5 4.5-19.3 11.3-2.8-11.5-13-20-25.2-20-.9 0-1.7 0-2.6.1.1-.9.1-1.7.1-2.6 0-14.4-11.6-26.2-26-26.2s-26 11.7-26 26.2c0 2.2.3 4.3.8 6.3h-.8c-14.3 0-25.9 11.6-26 25.9h51.3z"/></g><path d="M426.9 449.4l-133.6-71.2c-6.3-3.3-8.7-11.2-5.3-17.4 3.3-6.3 11.2-8.7 17.4-5.3l128.3 68.3 22.6-122.7H149.5v89.3l1.6 9h7.1a4.95 4.95 0 0 1 5 5v33.1h34.2a4.95 4.95 0 0 1 5 5v19.7c0 .6-.1 1.3-.4 1.8h28.5c7.9 0 14.4 6.4 14.4 14.4 0 .9-.1 1.8-.3 2.7H413c5.5 0 10.8-4.4 11.8-9.8l3.9-21c-.5-.3-1.2-.6-1.8-.9z" fill="#ff8387"/><path d="M149.5 301.1v89.3l1.6 9h7.1a4.95 4.95 0 0 1 5 5v33.1h22.2l-24.8-136.4h-11.1z" class="J K"/><path d="M112.7 276c-.1.3-.1.6-.1 1v19.1a4.95 4.95 0 0 0 5 5h12.8v-21h-12.8c-2.4 0-4.4-1.8-4.9-4.1z" fill="#63c3ea"/><path d="M472.1 272H290.9v3a4.95 4.95 0 0 1-5 5H149.5v21H472a4.95 4.95 0 0 0 5-5v-19c.1-2.7-2.2-5-4.9-5z" fill="#08375e"/><path d="M130.4,251h-12.8c-2.8,0-5,2.2-5,5v19.1c0,2.8,2.2,5,5,5h12.8V251z" fill="#34a1d7"/><path d="M285.9 251H149.5v29.1h136.4a4.95 4.95 0 0 0 5-5V256a4.95 4.95 0 0 0-5-5z" class="I"/><path d="M144.5 76.4h-9.1a4.95 4.95 0 0 1-5-5v328h19.1v-328c0 2.7-2.2 5-5 5z" fill="#abccd3"/><path d="M293.3 378.2c-6.3-3.3-8.7-11.2-5.3-17.4 3.3-6.3 11.2-8.7 17.4-5.3l21.7 11.6c.1-.9.1-1.9.1-2.8 0-17.9-14.5-32.4-32.4-32.4s-32.4 14.5-32.4 32.4 14.5 32.4 32.4 32.4c7.6 0 14.5-2.6 20-6.9l-21.5-11.6z" class="I"/><path d="M432.9 450.9c-2 0-4.1-.5-6-1.5l-133.6-71.2c-6.3-3.3-8.7-11.2-5.3-17.4 3.3-6.3 11.2-8.7 17.4-5.3L439 426.6c6.3 3.3 8.7 11.2 5.3 17.4-2.3 4.4-6.8 6.9-11.4 6.9z" fill="#ff8387"/><path d="M149.5,71.4c0,2.8-2.2,5-5,5h-9.1c-2.8,0-5-2.2-5-5V12.5c0-2.8,2.2-5,5-5h9.1c2.8,0,5,2.2,5,5V71.4z" fill="#34a1d7"/><path d="M163.3,437.5v-33.1c0-2.8-2.2-5-5-5h-36.6c-2.8,0-5,2.2-5,5v33.1H163.3z" class="I"/><path d="M133,437.5v-33.1c0-2.8,2.2-5,5-5h-16.3c-2.8,0-5,2.2-5,5v33.1H133z" class="J K"/><path d="M202.1 464c.2-.6.4-1.2.4-1.8v-19.7a4.95 4.95 0 0 0-5-5h-115a4.95 4.95 0 0 0-5 5v19.7c0 .6.1 1.3.4 1.8h124.2z" class="I"/><path d="M105.3 464c-.2-.6-.4-1.2-.4-1.8v-19.7a4.95 4.95 0 0 1 5-5H82.5a4.95 4.95 0 0 0-5 5v19.7c0 .6.1 1.3.4 1.8h27.4z" class="J K"/><path d="M245 478.4c0 7.9-6.4 14.4-14.4 14.4H49.3c-7.9 0-14.4-6.4-14.4-14.4h0c0-7.9 6.4-14.4 14.4-14.4h181.4c7.9 0 14.3 6.5 14.3 14.4h0z" class="I"/><path d="M67.9 478.4c0-7.9 6.4-14.4 14.4-14.4h-33c-7.9 0-14.4 6.4-14.4 14.4 0 7.9 6.4 14.4 14.4 14.4h33c-8-.1-14.4-6.5-14.4-14.4z" class="J"/><ellipse cx="353" cy="95.4" rx="42" ry="42.6" class="I"/><path d="M327.1 95.4c0-20.8 14.6-38.1 34-41.9-2.6-.5-5.3-.8-8-.8-23.2 0-42 19.1-42 42.6s18.8 42.6 42 42.6c2.7 0 5.4-.3 8-.8-19.4-3.6-34-20.9-34-41.7z" class="J"/><ellipse cx="427" cy="163.4" rx="22.2" ry="22.6" class="I"/><path d="M472.1 264.5h-6.9c-1-7.1-4.2-13.8-9.6-19.3-4.6-4.7-10.5-7.8-16.8-9.2-2.1-5.6-5.4-10.8-9.7-15.1-8-8-18.6-12.4-29.8-12.4a37.08 37.08 0 0 0-4.7.3c-5.8-16.5-21.5-28.3-39.9-28.3-16.6 0-31 9.7-37.9 23.7-5.4-11.2-16.9-19-30.1-19-18.3 0-33.3 14.9-33.5 33.2-12.4 2.9-22.1 12.6-25.1 25.1H157V180c0-4.1-3.4-7.5-7.5-7.5s-7.5 3.4-7.5 7.5v211.9h-4.1v-308h4.1V146c0 4.1 3.4 7.5 7.5 7.5s7.5-3.4 7.5-7.5V12.5C157 5.6 151.4 0 144.5 0h-9.1c-6.9 0-12.5 5.6-12.5 12.5v231h-5.3c-6.9 0-12.5 5.6-12.5 12.5v40.1c0 6.9 5.6 12.5 12.5 12.5h5.3v83.3h-1.3c-6.9 0-12.5 5.6-12.5 12.5V430H82.5c-6.9 0-12.5 5.6-12.5 12.5v14H49.3c-12.1 0-21.9 9.8-21.9 21.9 0 7.4 3.7 13.9 9.3 17.9l-2.9 2.9c-2.9 2.9-2.9 7.7 0 10.6 1.5 1.5 3.4 2.2 5.3 2.2s3.8-.7 5.3-2.2l9.6-9.6h4.4c-2 2.9-1.7 7 .9 9.6 1.5 1.5 3.4 2.2 5.3 2.2s3.8-.7 5.3-2.2l9.6-9.6h4.4c-2 2.9-1.7 7 .9 9.6 1.5 1.5 3.4 2.2 5.3 2.2s3.8-.7 5.3-2.2l9.6-9.6h4.4c-2 2.9-1.7 7 .9 9.6 1.5 1.5 3.4 2.2 5.3 2.2s3.8-.7 5.3-2.2l9.6-9.6h3.9v4.3c0 4.1 3.4 7.5 7.5 7.5s7.5-3.4 7.5-7.5v-4.3h3.9l9.6 9.6c1.5 1.5 3.4 2.2 5.3 2.2s3.8-.7 5.3-2.2c2.6-2.6 2.9-6.6.9-9.6h4.4l9.6 9.6c1.5 1.5 3.4 2.2 5.3 2.2s3.8-.7 5.3-2.2c2.6-2.6 2.9-6.6.9-9.6h4.4l9.6 9.6c1.5 1.5 3.4 2.2 5.3 2.2s3.8-.7 5.3-2.2c2.6-2.6 2.9-6.6.9-9.6h4.4l9.6 9.6c1.5 1.5 3.4 2.2 5.3 2.2s3.8-.7 5.3-2.2c2.9-2.9 2.9-7.7 0-10.6l-4.4-4.4c2-1.8 3.7-3.9 4.9-6.2h92c4.1 0 7.5-3.4 7.5-7.5s-3.4-7.5-7.5-7.5h-90c-2.2-9.8-10.9-17.1-21.3-17.1H210v-14c0-6.9-5.6-12.5-12.5-12.5h-26.7v-25.6c0-6.9-5.6-12.5-12.5-12.5H157v-83.3h290.3l-19.1 103.8-93.5-49.8c-.9-21.2-18.4-38.3-39.9-38.3-22 0-39.9 17.9-39.9 39.9s17.9 39.9 39.9 39.9c7.5 0 14.5-2.1 20.5-5.7l105.1 56-2.8 15.4c-.3 1.9-2.5 3.7-4.4 3.7H382c-4.1 0-7.5 3.4-7.5 7.5s3.4 7.5 7.5 7.5h31.2c9.1 0 17.5-7 19.2-16l2.6-14.3c6.7-.7 12.7-4.6 15.9-10.7 5.3-9.9 1.5-22.3-8.4-27.6l-.4-.2 20.5-111.2h9.5c6.9 0 12.5-5.6 12.5-12.5v-19c0-6.9-5.6-12.5-12.5-12.5zM137.9 15h4.1v53.9h-4.1V15zm-17.8 243.5h2.8v14.1h-2.8v-14.1zm0 35.1v-6h2.8v6h-2.8zM195 456.5h-9c-4.1 0-7.5 3.4-7.5 7.5s3.4 7.5 7.5 7.5h44.7c3.8 0 6.9 3.1 6.9 6.9s-3.1 6.9-6.9 6.9H49.3c-3.8 0-6.9-3.1-6.9-6.9s3.1-6.9 6.9-6.9H147c4.1 0 7.5-3.4 7.5-7.5s-3.4-7.5-7.5-7.5H85V445h110v11.5zM124.2 430v-23.1h31.6V430h-31.6zm170.6-40.8c-13.7 0-24.9-11.2-24.9-24.9s11.2-24.9 24.9-24.9c9.8 0 18.3 5.7 22.3 13.9l-8.2-4.4c-2.9-1.6-6.3-2.4-9.6-2.4-7.6 0-14.5 4.1-18 10.8-2.6 4.8-3.1 10.3-1.5 15.5s5.1 9.5 9.9 12l7.8 4.2c-.8.1-1.7.2-2.7.2zm142.9 51.3c-.9 1.8-2.8 2.9-4.8 2.9a5.42 5.42 0 0 1-2.5-.6l-133.6-71.2c-1.3-.7-2.2-1.8-2.6-3.2s-.3-2.8.4-4.1c.9-1.8 2.8-2.9 4.8-2.9a5.42 5.42 0 0 1 2.5.6l133.6 71.1c2.6 1.6 3.6 4.8 2.2 7.4zm-38.4-216.9c7.3 0 14.1 2.8 19.2 8 3.6 3.6 6.1 8.1 7.2 13 .8 3.2 3.6 5.6 6.9 5.8 4.7.3 9 2.2 12.3 5.5 2.5 2.5 4.1 5.5 4.9 8.7h-30.7c-3.4-11.3-13.8-19.5-26.1-19.5h-4.6c-1.4-5.3-4.2-10.1-8-13.8 5.1-5 11.8-7.7 18.9-7.7zm-44.6-28.1c11.6 0 21.5 7.3 25.5 17.6-3.9 2-7.5 4.6-10.7 7.8-.8.8-1.6 1.7-2.3 2.5-2.4-.6-4.9-1-7.5-1-6.2 0-12.2 2-17.2 5.5-3.6-5.1-8.5-9.1-14.3-11.6 2.9-11.8 13.6-20.8 26.5-20.8zm-96.2 37.2c.2 0 1.5-.1 2-.1h.8c4.3.2 8.4 1.8 11.6 4.7 3.1 2.8 7.8 2.5 10.6-.5 2.8-3.1 2.5-7.8-.5-10.6-4.3-3.8-9.4-6.5-14.9-7.8.2-10.1 8.4-18.2 18.5-18.2 10.2 0 18.5 8.4 18.5 18.7 0 .6 0 1.2-.1 1.9-.2 2.2.6 4.5 2.2 6 1.6 1.6 3.8 2.4 6.1 2.2.6-.1 1.2-.1 1.9-.1 7.7 0 14.4 4.8 17.2 11.9-1.5 3.6-2.4 7.6-2.4 11.8 0 4.1 3.4 7.5 7.5 7.5s7.5-3.4 7.5-7.5c0-2.9.8-5.6 2.2-7.8.1-.1.6-1 .9-1.3 2.8-3.6 7.1-5.8 11.7-5.8 8.1 0 14.8 6.7 14.8 14.9 0 4.1 3.4 7.5 7.5 7.5H393c3.8 0 7.2 1.8 9.5 4.5H298.4V256c0-6.9-5.6-12.5-12.5-12.5h-42.1c2.7-5.8 8.2-10 14.7-10.8zm24.9 25.8v14.1H157v-14.1h126.4zm186.2 35.1H157v-6h128.9c5.3 0 9.9-3.3 11.7-8h172v14zM353 145.6c27.3 0 49.5-22.5 49.5-50.1S380.3 45.3 353 45.3s-49.5 22.5-49.5 50.1c0 27.7 22.2 50.2 49.5 50.2zm0-85.3c19 0 34.5 15.8 34.5 35.1 0 19.4-15.5 35.1-34.5 35.1s-34.5-15.8-34.5-35.1S334 60.3 353 60.3zm74 133.2c16.4 0 29.7-13.5 29.7-30.1s-13.3-30.1-29.7-30.1-29.7 13.5-29.7 30.1 13.3 30.1 29.7 30.1zm0-45.1c8.1 0 14.7 6.8 14.7 15.1s-6.6 15.1-14.7 15.1-14.7-6.8-14.7-15.1c0-8.4 6.6-15.1 14.7-15.1z"/></svg>