<svg xmlns="http://www.w3.org/2000/svg" viewBox="0 0 512 512"><path d="M256 8.5C119.3 8.5 8.5 119.3 8.5 256S119.3 503.5 256 503.5 503.5 392.7 503.5 256 392.7 8.5 256 8.5zM42.7 256c0-83.2 48.4-158.8 123.9-193.7S331 39.7 394.3 93.6L93.6 394.3c-32.9-38.5-51-87.6-50.9-138.3zM256 469.3c-50.7.1-99.8-18-138.3-50.9l300.7-300.7c53.9 63.3 66.1 152.2 31.3 227.8S339.2 469.3 256 469.3h0z" fill="#10c1d8"/><g fill="#ff8387"><path d="M314.8 173.1l-48.2 48.2c-3.5.3-7 .5-10.6.5-14.4.3-28.6-2.7-41.6-8.8-11.3-5.7-18.1-13.4-18.1-21.1-.7-15.4 2.2-30.7 8.5-44.8 4.2-12.7 11.3-24.2 20.7-33.6 8.3-7.5 19.2-11.5 30.5-11.2 11.2-.4 22.1 3.7 30.5 11.2 9.5 9.4 16.6 20.9 20.7 33.6 3.4 8.5 6 17.2 7.6 26z"/><path d="M289.2 173.1l-47.7 47.7c4.8.7 9.7 1 14.5 1 3.5 0 7.1-.2 10.6-.5l48.2-48.2c-1.6-8.9-4.2-17.6-7.6-25.9h0c-4.2-12.7-11.3-24.2-20.7-33.6-8.3-7.5-19.2-11.5-30.5-11.2a46.55 46.55 0 0 0-12.8 1.8c6.6 1.6 12.6 4.9 17.7 9.4"/><path d="M266.6 221.4l-31.7 31.7c-22.1-7-23.2-25.9-20.5-40a93.51 93.51 0 0 0 41.6 8.8c3.5 0 7.1-.2 10.6-.5zm49.1 129.8l-.3 7.2h-119l-.3-7.2c0-4.1.3-8.2.9-12.3l14.7-14.7H311c3.3 8.7 4.8 17.8 4.7 27h0z"/><path d="M311.1 324.3h-99.3l34.1-34.1h35.7c13.8 7.2 24.3 19.4 29.5 34.1zm4.4 34.1c-.6 11.7-3.1 23.2-7.4 34.1H203.9c-4.3-10.9-6.9-22.4-7.4-34.1h119z"/><path d="M308.1 392.5c-9.9 25.3-29.1 42.7-52.1 42.7s-42.2-17.3-52.1-42.7h104.2zm-9.4-119.4a17.29 17.29 0 0 1-17.1 17.1h-35.7l34.1-34.1h1.5c9.5-.1 17.1 7.6 17.2 17z"/></g><path d="M256 0C114.6 0 0 114.6 0 256s114.6 256 256 256 256-114.6 256-256C511.8 114.7 397.3.2 256 0zm0 494.9C124 494.9 17.1 388 17.1 256S124 17.1 256 17.1 494.9 124 494.9 256c-.1 131.9-107 238.8-238.9 238.9zM402.9 93.3c-.1-2.4-1.2-4.6-3-6.2C311.8 12.2 181 17.5 99.2 99.2s-87 212.6-12.1 300.6c1.5 1.8 3.8 2.9 6.2 3h.3c2.3 0 4.4-.9 6-2.5L400.4 99.6c1.6-1.6 2.5-4 2.5-6.3h0zm-171.6 26.6c6.7-6.1 15.6-9.4 24.7-9 9.1-.4 18 2.9 24.8 9 8.4 8.5 14.7 18.9 18.4 30.3 2.6 6.5 4.7 13.2 6.3 20.1L262.9 213c-2.2.2-4.5.3-6.8.3-13 .3-25.9-2.4-37.8-7.9-10-5-13.5-10.4-13.5-13.4-.7-14.4 2.1-28.7 8-41.8 3.7-11.4 10-21.8 18.5-30.3zM222 225.3c7.8 2.5 15.9 4 24 4.6l-13.2 13.2c-6.8-3.3-11.1-10.3-10.8-17.8zm97.4-68.8c-1.2-3.7-2.5-7.7-4.3-12.3-4.1-11.9-10.3-22.8-18.5-32.4 6.9-19.4-7.6-39.2-8.3-40.1-1.8-2.4-4.8-3.7-7.8-3.4s-5.6 2.3-6.8 5.1-.8 6 1 8.5c3.8 5.3 6.1 11.6 6.8 18.1a56.15 56.15 0 0 0-51.1 0c.6-6.5 3-12.8 6.8-18.1 1.8-2.4 2.2-5.7 1-8.5s-3.8-4.8-6.8-5.1-6 .9-7.8 3.4c-.7.9-15.2 20.7-8.3 40.1-8.1 9.6-14.4 20.6-18.5 32.4-6.7 15-9.8 31.4-9.1 47.8 1 11 7.6 20.7 17.5 25.7-.1.9-.3 1.8-.3 2.7l-36.3-6-15.4-46.4c-.5-1.6-1.6-3.1-3-4.1l-34.1-25.6c-3.8-2.8-9.1-2.1-11.9 1.7s-2.1 9.1 1.7 11.9l32 24 16.2 48.6c1 3 3.6 5.2 6.7 5.7l46.5 7.7c2.4 7.1 7.1 13.2 13.3 17.4l-9.4 9.4-50.3 8.4c-1.8.3-3.4 1.1-4.6 2.4L124 307.8l-40.1 8a8.55 8.55 0 0 0-7 9.2c.4 4.4 4.2 7.8 8.6 7.7.6 0 1.1-.1 1.7-.2l42.7-8.5c1.7-.3 3.2-1.1 4.4-2.3l32.2-32.2 24.1-4-96.1 96.1c-63.3-81.5-56-197.4 17-270.4s188.8-80.3 270.4-17l-62.5 62.3zm93-44.9L111.6 412.4a8.51 8.51 0 0 0-2.5 6.4c.1 2.4 1.2 4.6 3 6.2 88.1 74.9 218.9 69.6 300.6-12.1s87-212.6 12.1-300.6c-1.5-1.8-3.8-2.9-6.2-3-2.3-.3-4.6.6-6.2 2.3h0zM215.3 332.8h89.6c1.4 5.6 2.2 11.3 2.2 17.1H204.9c0-2.3.2-4.7.5-7.1l9.9-10zm34.2-34.1h30.1c7.2 4.2 13.3 10.1 17.8 17.1h-64.9l17-17.1zm52.6 85.3h-92.2c-1.9-5.6-3.2-11.3-4-17.1H306c-.7 5.8-2.1 11.5-3.9 17.1zm-7.7 17.1c-7.2 14.8-21.9 24.6-38.4 25.6a45.63 45.63 0 0 1-38.3-25.6h76.7zm-4.3-128c0 2.3-.9 4.5-2.6 6.1-1.6 1.6-3.7 2.5-5.9 2.5h-15.1l16.8-16.7c3.9.6 6.8 4.1 6.8 8.1zM460.8 256c0 78.2-44.5 149.6-114.8 183.9s-153.9 25.8-215.7-22.2L188 360a114.25 114.25 0 0 0 7.9 35.6l.1.2.1.1c11.6 29.5 34.5 47.8 59.9 47.8s48.3-18.4 59.9-47.8v-.2c4.7-11.7 7.4-24.1 8-36.7v-.6c.2-2.3.3-4.8.3-7.2 0-8.8-1.3-17.6-3.9-26l5.3 4.3 16.2 40.6c.8 1.9 2.2 3.5 4.1 4.5l34.1 17.1c2.7 1.4 6 1.2 8.5-.5s4-4.6 3.8-7.6-2-5.8-4.7-7.1l-31.2-15.6-15.9-39.7c-.5-1.4-1.4-2.6-2.6-3.5l-36.3-29c1.4-1.8 2.5-3.7 3.4-5.7l40.5 6.7 32.2 32.2c1.2 1.2 2.7 2 4.4 2.3l42.7 8.5c.6.1 1.2.1 1.8.1 4.4 0 8.1-3.3 8.5-7.7a8.54 8.54 0 0 0-6.8-9.2l-40.1-8-32.2-32.3a8.57 8.57 0 0 0-4.6-2.4l-45.3-7.6c-1.7-5.5-5.1-10.3-9.9-13.7l121.6-121.6c27.9 36 43 80.2 43 125.7h0z"/></svg>