<svg xmlns="http://www.w3.org/2000/svg" xmlns:xlink="http://www.w3.org/1999/xlink" viewBox="0 0 512 512"><path d="M171.2 175v31.3l12.6 12.6h18.9v36.6h-59.5v-26.2H91V175h80.2z" fill="#ff8387"/><path d="M143.2 255.5H91v-26.2h52.2v26.2z" fill="#e0e0e2"/><path d="M116.5 98.7h60.7l25.5 19.1v19.1h-71.5V175H103v-62.8l13.5-13.5zM103 295.2l5.8 5.8h16.6l5.8-5.8v-39.7H103v39.7z" fill="#79787d"/><path d="M156.1 188.6c2.7 2.7 2.7 7.1 0 9.9-2.7 2.7-7.1 2.7-9.9 0-2.7-2.7-2.7-7.1 0-9.9 2.7-2.7 7.2-2.7 9.9 0z" fill="#e0e0e2"/><path d="M202.7 151.4v17.8l-5.8 5.8h-7.3v43.9h-5.8l-12.6-12.6V175h-24.3v-23.6h55.8zm-49.9 104.1h36.8v146.8L178 413.9h-13.7l-11.6-11.6.1-146.8zm23.4 132.9c-2.7-2.7-7.1-2.7-9.9 0-2.7 2.7-2.7 7.1 0 9.9 2.7 2.7 7.1 2.7 9.9 0s2.8-7.1 0-9.9z" fill="#10c1d8"/><path d="M154.6 244.1v-26.2h-52.2V175H91v54.3h52.2v26.2h59.5v-11.4h-48.1z" fill="#ff8387"/><path d="M102.4 244.1v-14.8H91v26.2h52.2v-11.4h-40.8z" fill="#acabb1"/><path d="M120.2 289.6l-5.8-5.8v-28.3H103v39.7l5.8 5.8h16.6l5.8-5.8v-5.6h-11zm-5.8-126v-62.8L103 112.2V175h28.2v-11.4h-16.8zm28.1-26.7v-11.4h60.2v11.4h-60.2z" fill="#575759"/><path d="M173.3 400.1c-2.4.7-5.1.1-6.9-1.8-1.9-1.9-2.5-4.6-1.8-6.9l-.4-.4V255.5h-11.4v146.8l11.6 11.6h13.7l11.4-11.4h-13.7l-2.5-2.4zm9.3-205.2v-31.3h-24.3v-12.2h-11.4V175h24.3v31.3l12.6 12.6h5.8V202l-7-7.1z" fill="#10c1d8"/><path d="M158.9 185.8a11.05 11.05 0 0 0-15.6 0 11.05 11.05 0 0 0 0 15.6 11.05 11.05 0 0 0 15.6 0c4.3-4.4 4.3-11.3 0-15.6zm-9.8 9.8c-1.2-1.2-1.2-3 0-4.2s3-1.2 4.2 0 1.2 3 0 4.2-3.1 1.2-4.2 0zm-36 92.6h8v-28.7h26.1v-34.2H87v34.2h26.1v28.7zM95 233.3h44.2v18.1h-5v-11.3h-8v11.3h-5v-11.3h-8v11.3h-5v-11.3h-8v11.3h-5l-.2-18.1zm83.6-139.2h-63.7L99 110v53.8h8v-50.5l11.1-11.1h57.7l14.7 11.1h-41.2v8h49.2v11.1H127v31.4h8v-23.4h71.5v-25.1l-27.9-21.2zm7 306.5l-9.2 9.2H166l-9.2-9.2V266.2h-8V404l13.9 13.9h17l13.9-13.9V266.2h-8v134.4zm-42.7-236.3h8v-8.9h47.8v12.1l-3.4 3.4h-9.6v37.2h8V179h4.9l8.1-8.1v-23.5h-63.8v16.9zm-7.7 132.5v-30.7h-8v27.3l-3.4 3.4h-13.2l-3.4-3.4v-27.3h-8v30.7l8.1 8.1H127l8.2-8.1zm40-92.2V171h-54.1v-37.9h-8V171H87v47.6h8V179h32.1v23.8h8V179h32v29l15 15h16.5v28.5h-44.8v8h52.8v-44.6h-21.2l-10.2-10.3z" fill="#333232"/><path d="M180.2 354.9h-8v-59.2h8v59.2zm0-64.6h-8v-8h8v8zm0-13.4h-8v-8h8v8zm12.3-109.6h-9.8v-8h9.8v8zm-15.1 0h-8v-8h8v8zm-13.4 0h-8v-8h8v8zm28.6 78.8h-8v-8h8v8zm-13.4 0h-8v-8h8v8zm-13.4 0h-12.6v-8h12.6v8z" fill="#fff"/><path d="M440.7 157.2h-29.6v-24.7h29.6v24.7z" fill="#ccd1d9"/><path d="M465.4 102.8a14.77 14.77 0 1 1 0 29.6h-79.1c-8.1 0-14.8-6.6-14.8-14.8s6.7-14.8 14.8-14.8h79.1z" fill="#ff8387"/><path d="M312.2 320.2s34.6 35.3 34.6 54.4-15.5 34.6-34.6 34.6-34.6-15.5-34.6-34.6c.1-19.1 34.6-54.4 34.6-54.4z" fill="#10c1d8"/><g fill="#ccd1d9"><path d="M277.7 260.9h69.1a4.91 4.91 0 0 1 4.9 4.9v19.8a4.91 4.91 0 0 1-4.9 4.9h-69.2a4.91 4.91 0 0 1-4.9-4.9v-19.8c0-2.6 2.2-4.9 5-4.9z"/><path d="M266.1 265.9v19.8a4.91 4.91 0 0 0 4.9 4.9h14.8a4.91 4.91 0 0 1-4.9-4.9v-19.8a4.91 4.91 0 0 1 4.9-4.9h-14.7c-2.7-.1-5 2.2-5 4.9z"/></g><g fill="#10c1d8"><path d="M381.4 172v59.3h-9.9c-16.4 0-29.6 13.2-29.6 29.6h-59.3c0-49.2 39.8-88.9 88.9-88.9h9.9z"/><path d="M282.6 260.9h14.8c0-47.5 37.1-86.1 84-88.7v-.2h-9.9c-49.1 0-88.9 39.8-88.9 88.9z"/></g><path d="M381.4 172v-4.9a9.86 9.86 0 0 1 9.9-9.9h69.1a9.86 9.86 0 0 1 9.9 9.9h.1v69.1h-.1a9.86 9.86 0 0 1-9.9 9.9h-69.1c-5.4 0-9.9-4.4-9.9-9.9V172z" fill="#ccd1d9"/><path d="M514.7 231.3h-44.4V172h44.4v59.3z" fill="#10c1d8"/><g fill="#333232"><path d="M272.7 374.6c0-20.5 32.3-54.1 36-57.8 1.9-1.9 5.2-1.9 7.1 0 3.7 3.8 36 37.3 36 57.8 0 21.8-17.7 39.5-39.5 39.5s-39.6-17.7-39.6-39.5zm9.9 0c0 16.3 13.3 29.6 29.6 29.6 16.4 0 29.6-13.3 29.6-29.6 0-12.5-19-35.6-29.6-47.2-10.6 11.6-29.6 34.7-29.6 47.2z"/><use xlink:href="#B"/><use xlink:href="#B" y="59.3"/><path d="M277.7 260.9c0-51.8 42.1-93.9 93.9-93.9a4.91 4.91 0 0 1 4.9 4.9 4.91 4.91 0 0 1-4.9 4.9c-46.3 0-84 37.7-84 84a4.91 4.91 0 0 1-4.9 4.9c-2.8.2-5-2-5-4.8zm59.3 0c0-19.1 15.5-34.6 34.6-34.6a4.91 4.91 0 0 1 4.9 4.9 4.91 4.91 0 0 1-4.9 4.9c-13.6 0-24.7 11.1-24.7 24.7a4.91 4.91 0 0 1-4.9 4.9c-2.8.2-5-2-5-4.8z"/><path d="M267.8 285.7v-19.8a9.86 9.86 0 0 1 9.9-9.9h69.2c5.4 0 9.9 4.4 9.9 9.9v19.8c0 5.4-4.4 9.9-9.9 9.9h-69.2c-5.5-.1-9.9-4.5-9.9-9.9zm9.9 4.9v-4.9 4.9zm0-24.7v19.8h69.2v-19.8h-69.2z"/><use xlink:href="#C"/><use xlink:href="#C" x="-88.9"/><use xlink:href="#D"/><use xlink:href="#D" x="-29.7"/><path d="M460.5 132.5a4.91 4.91 0 0 1 4.9-4.9c5.4 0 9.9-4.4 9.9-9.9a9.86 9.86 0 0 0-9.9-9.9 4.91 4.91 0 0 1-4.9-4.9 4.91 4.91 0 0 1 4.9-4.9c10.9 0 19.8 8.9 19.8 19.8s-8.9 19.8-19.8 19.8c-2.7-.2-4.9-2.4-4.9-5.1zm-93.9-14.8c0-10.9 8.9-19.8 19.8-19.8a4.91 4.91 0 0 1 4.9 4.9 4.91 4.91 0 0 1-4.9 4.9c-5.4 0-9.9 4.4-9.9 9.9a9.86 9.86 0 0 0 9.9 9.9 4.91 4.91 0 0 1 4.9 4.9 4.91 4.91 0 0 1-4.9 4.9c-10.9.1-19.8-8.7-19.8-19.6z"/><path d="M381.4 102.8a4.91 4.91 0 0 1 4.9-4.9h79.1a4.91 4.91 0 0 1 4.9 4.9 4.91 4.91 0 0 1-4.9 4.9h-79.1c-2.7.1-4.9-2.1-4.9-4.9zm0 29.7a4.91 4.91 0 0 1 4.9-4.9h79.1a4.91 4.91 0 0 1 4.9 4.9 4.91 4.91 0 0 1-4.9 4.9h-79.1a4.91 4.91 0 0 1-4.9-4.9zm84 34.6a4.91 4.91 0 0 0-4.9-4.9 4.91 4.91 0 0 1-4.9-4.9 4.91 4.91 0 0 1 4.9-4.9 14.77 14.77 0 0 1 14.8 14.8 4.91 4.91 0 0 1-4.9 4.9c-2.8-.1-5-2.3-5-5zm-88.9 0c0-8.2 6.7-14.8 14.8-14.8a4.91 4.91 0 0 1 4.9 4.9 4.91 4.91 0 0 1-4.9 4.9 4.91 4.91 0 0 0-4.9 4.9 4.91 4.91 0 0 1-4.9 4.9c-2.8.1-5-2.1-5-4.8z"/><path d="M386.4 157.2a4.91 4.91 0 0 1 4.9-4.9h69.1a4.91 4.91 0 0 1 4.9 4.9 4.91 4.91 0 0 1-4.9 4.9h-69.1a4.91 4.91 0 0 1-4.9-4.9zm-9.9 79a4.91 4.91 0 0 1 4.9-4.9 4.91 4.91 0 0 1 4.9 4.9 4.91 4.91 0 0 0 4.9 4.9 4.91 4.91 0 0 1 4.9 4.9 4.91 4.91 0 0 1-4.9 4.9c-8.1.2-14.7-6.5-14.7-14.7zm79 9.9a4.91 4.91 0 0 1 4.9-4.9 4.91 4.91 0 0 0 4.9-4.9 4.91 4.91 0 0 1 4.9-4.9 4.91 4.91 0 0 1 4.9 4.9 14.77 14.77 0 0 1-14.8 14.8c-2.6 0-4.8-2.3-4.8-5z"/><path d="M386.4 246.1a4.91 4.91 0 0 1 4.9-4.9h69.1a4.91 4.91 0 0 1 4.9 4.9 4.91 4.91 0 0 1-4.9 4.9h-69.1c-2.7.1-4.9-2.2-4.9-4.9z"/><use xlink:href="#E"/><use xlink:href="#E" y="-59.3"/><path d="M307.1 374.6v-19.7a4.91 4.91 0 0 1 4.9-4.9 4.91 4.91 0 0 1 4.9 4.9v19.7a4.91 4.91 0 0 1-4.9 4.9c-2.7.1-4.9-2.2-4.9-4.9zm-.2 14.8a4.91 4.91 0 0 1 4.9-4.9h.1a4.91 4.91 0 0 1 4.9 4.9c0 2.7-2.2 4.9-5 4.9-2.6.1-4.9-2.1-4.9-4.9z"/></g><defs ><path id="B" d="M465.4 172a4.91 4.91 0 0 1 4.9-4.9h44.4a4.91 4.91 0 0 1 4.9 4.9 4.91 4.91 0 0 1-4.9 4.9h-44.4a4.91 4.91 0 0 1-4.9-4.9z"/><path id="C" d="M465.4 236.2V167a4.91 4.91 0 0 1 4.9-4.9 4.91 4.91 0 0 1 4.9 4.9v69.2a4.91 4.91 0 0 1-4.9 4.9c-2.7.1-4.9-2.1-4.9-4.9z"/><path id="D" d="M435.8 157.2v-24.7a4.91 4.91 0 0 1 4.9-4.9 4.91 4.91 0 0 1 4.9 4.9v24.7a4.91 4.91 0 0 1-4.9 4.9 4.91 4.91 0 0 1-4.9-4.9z"/><path id="E" d="M366.6 231.3a4.91 4.91 0 0 1 4.9-4.9h9.9a4.91 4.91 0 0 1 4.9 4.9 4.91 4.91 0 0 1-4.9 4.9h-9.9a4.91 4.91 0 0 1-4.9-4.9z"/></defs></svg>