<?xml version="1.0" encoding="utf-8"?>
<!-- Generator: Adobe Illustrator 24.0.3, SVG Export Plug-In . SVG Version: 6.00 Build 0)  -->
<svg version="1.1" id="Capa_1" xmlns="http://www.w3.org/2000/svg" xmlns:xlink="http://www.w3.org/1999/xlink" x="0px" y="0px"
	 viewBox="0 0 512 512" style="enable-background:new 0 0 512 512;" xml:space="preserve">
<style type="text/css">
	.st0{fill:#70BDD2;}
	.st1{fill:#8CC4F0;}
	.st2{fill:#F08A8A;}
	.st3{fill:#D9EBFA;}
</style>
<path class="st0" d="M452.3,503.5H59.7c-9.4,0-17.1-7.6-17.1-17.1V25.6c0-9.4,7.6-17.1,17.1-17.1h392.5c9.4,0,17.1,7.6,17.1,17.1
	v460.8C469.3,495.8,461.7,503.5,452.3,503.5z"/>
<path class="st1" d="M469.3,128H42.7V25.6c0-9.4,7.6-17.1,17.1-17.1h392.5c9.4,0,17.1,7.6,17.1,17.1L469.3,128L469.3,128z"/>
<g>
	<path class="st2" d="M256,93.9L256,93.9c-14.1,0-25.6-11.5-25.6-25.6l0,0c0-14.1,11.5-25.6,25.6-25.6l0,0
		c14.1,0,25.6,11.5,25.6,25.6l0,0C281.6,82.4,270.1,93.9,256,93.9z"/>
	<path class="st2" d="M418.1,93.9h-85.3V59.7c0-9.4,7.6-17.1,17.1-17.1h85.3v34.1C435.2,86.2,427.6,93.9,418.1,93.9z"/>
	<path class="st2" d="M102.4,93.9H76.8V51.2c0-4.7,3.8-8.5,8.5-8.5h25.6v42.7C110.9,90,107.1,93.9,102.4,93.9z"/>
	<path class="st2" d="M170.7,93.9h-25.6V51.2c0-4.7,3.8-8.5,8.5-8.5h25.6v42.7C179.2,90,175.4,93.9,170.7,93.9z"/>
</g>
<circle class="st3" cx="256" cy="315.7" r="136.5"/>
<path class="st2" d="M156.8,290.1c11.4-44.2,51.5-76.8,99.2-76.8c56.6,0,102.4,45.8,102.4,102.4S312.6,418.1,256,418.1
	c-47.7,0-87.8-32.6-99.2-76.8"/>
<path class="st0" d="M128,290.1h59.7c9.4,0,17.1,7.6,17.1,17.1v17.1c0,9.4-7.6,17.1-17.1,17.1H128"/>
<path class="st2" d="M298.7,335.1c-28.5,12.8-22.9,25.2-51.3,38.1c-24,10.8-41.9,8.2-63.9,14.7c18.5,18.7,44.2,30.3,72.6,30.3
	c55.4,0,100.4-44,102.2-98.9C335.9,327.3,324,323.7,298.7,335.1z"/>
<g>
	<path class="st0" d="M452.3,503.5H384v-34.1c0-9.4,7.6-17.1,17.1-17.1h68.3v34.1C469.3,495.8,461.7,503.5,452.3,503.5z"/>
	<path class="st0" d="M59.7,503.5H128v-34.1c0-9.4-7.6-17.1-17.1-17.1H42.7v34.1C42.7,495.8,50.3,503.5,59.7,503.5z"/>
</g>
<path d="M452.3,0H59.7C45.6,0,34.1,11.5,34.1,25.6V128v324.3v34.1c0,14.1,11.5,25.6,25.6,25.6H128h256h68.3
	c14.1,0,25.6-11.5,25.6-25.6v-34.1V128V25.6C477.9,11.5,466.4,0,452.3,0z M375.5,469.3v25.6H136.5v-25.6c0-14.1-11.5-25.6-25.6-25.6
	H51.2V136.5h409.6v307.2h-59.7C387,443.7,375.5,455.2,375.5,469.3z M51.2,25.6c0-4.7,3.8-8.5,8.5-8.5h392.5c4.7,0,8.5,3.8,8.5,8.5
	v93.9H51.2L51.2,25.6L51.2,25.6z M59.7,494.9c-4.7,0-8.5-3.8-8.5-8.5v-25.6h59.7c4.7,0,8.5,3.8,8.5,8.5v25.6H59.7z M460.8,486.4
	c0,4.7-3.8,8.5-8.5,8.5h-59.7v-25.6c0-4.7,3.8-8.5,8.5-8.5h59.7V486.4z"/>
<path d="M256,34.1c-18.8,0-34.1,15.3-34.1,34.1s15.3,34.1,34.1,34.1s34.1-15.3,34.1-34.1S274.8,34.1,256,34.1z M256,85.3
	c-9.4,0-17.1-7.7-17.1-17.1s7.7-17.1,17.1-17.1c9.4,0,17.1,7.7,17.1,17.1S265.4,85.3,256,85.3z"/>
<path d="M435.2,34.1h-85.3c-14.1,0-25.6,11.5-25.6,25.6v34.1c0,4.7,3.8,8.5,8.5,8.5h85.3c14.1,0,25.6-11.5,25.6-25.6V42.7
	C443.7,37.9,439.9,34.1,435.2,34.1z M426.7,76.8c0,4.7-3.8,8.5-8.5,8.5h-76.8V59.7c0-4.7,3.8-8.5,8.5-8.5h76.8V76.8L426.7,76.8z"/>
<path d="M110.9,34.1H85.3c-9.4,0-17.1,7.7-17.1,17.1v42.7c0,4.7,3.8,8.5,8.5,8.5h25.6c9.4,0,17.1-7.7,17.1-17.1V42.7
	C119.5,37.9,115.6,34.1,110.9,34.1z M85.3,85.3V51.2h17.1l0,34.1H85.3z"/>
<path d="M179.2,34.1h-25.6c-9.4,0-17.1,7.7-17.1,17.1v42.7c0,4.7,3.8,8.5,8.5,8.5h25.6c9.4,0,17.1-7.7,17.1-17.1V42.7
	C187.7,37.9,183.9,34.1,179.2,34.1z M153.6,85.3V51.2h17.1l0,34.1H153.6z"/>
<path d="M256,170.7c-80,0-145.1,65.1-145.1,145.1S176,460.8,256,460.8s145.1-65.1,145.1-145.1S336,170.7,256,170.7z M129.3,298.7
	h58.5c4.7,0,8.5,3.8,8.5,8.5v17.1c0,4.7-3.8,8.5-8.5,8.5h-58.5c-0.8-5.6-1.3-11.3-1.3-17.1S128.5,304.3,129.3,298.7z M248.3,409.3
	c-0.8-0.1-1.5-0.2-2.3-0.3c-1.8-0.2-3.5-0.4-5.2-0.7c-0.9-0.1-1.8-0.3-2.6-0.5c-1.6-0.3-3.1-0.6-4.7-1c-1-0.2-1.9-0.5-2.9-0.8
	c-1.4-0.4-2.8-0.8-4.2-1.3c-1.1-0.4-2.2-0.8-3.3-1.2c-1.1-0.4-2.3-0.9-3.4-1.3c-1.3-0.6-2.6-1.1-3.9-1.8c-0.8-0.4-1.6-0.8-2.4-1.2
	c-1.6-0.8-3.2-1.7-4.7-2.6c-0.4-0.2-0.7-0.4-1.1-0.7c-1.9-1.1-3.7-2.3-5.5-3.6c2.6-0.4,5.3-0.8,8-1.2c12.5-1.7,25.4-3.5,40.8-10.4
	c15.9-7.1,22.6-14.5,28.5-21.1c5.5-6.1,10.2-11.3,22.8-17c13.2-6,22.4-7.5,32.1-9.1c4.5-0.8,9.2-1.5,14.2-2.8c0,0.1,0,0.2-0.1,0.3
	c-0.4,2.3-0.9,4.6-1.4,6.9c-0.2,0.8-0.4,1.5-0.6,2.3c-0.5,1.8-1,3.6-1.6,5.3c-0.5,1.3-0.9,2.7-1.5,4c-0.5,1.2-0.9,2.4-1.4,3.5
	c-0.9,2.1-1.9,4.2-3,6.3c-0.2,0.3-0.4,0.7-0.5,1c-10.1,18.5-26.3,33.2-45.8,41.5c0,0-0.1,0-0.1,0c-2.6,1.1-5.2,2.1-8,2.9
	c-0.3,0.1-0.7,0.2-1,0.3c-2.4,0.7-4.9,1.3-7.4,1.9c-0.6,0.1-1.1,0.3-1.7,0.4c-2.3,0.5-4.7,0.8-7.1,1.1c-0.7,0.1-1.4,0.2-2.1,0.3
	c-3,0.3-6.1,0.5-9.2,0.5C253.4,409.6,250.9,409.5,248.3,409.3z M331.5,317c-10.3,1.7-21,3.5-36.3,10.4
	c-15.8,7.1-22.6,14.5-28.5,21.1c-5.5,6.1-10.2,11.3-22.8,17c-13.1,5.9-24.3,7.5-36.1,9.1c-6.9,1-14.1,2-21.7,3.9
	c-7.4-8.2-13.3-17.9-17.5-28.5h19.1c14.1,0,25.6-11.5,25.6-25.6v-17.1c0-14.1-11.5-25.6-25.6-25.6h-19.1
	c13.9-35.6,48.3-59.7,87.4-59.7c50.8,0,92.3,40.7,93.7,91.2C343.2,315,337.4,316,331.5,317z M256,443.7
	c-58.7,0-108.2-39.8-123.2-93.9h17.7c10,31.1,33,55.6,62.1,67.9c1,0.4,2.1,0.8,3.1,1.2c2,0.8,4.1,1.5,6.1,2.2
	c1.3,0.4,2.6,0.8,3.9,1.2c1.9,0.5,3.9,1,5.9,1.5c1.3,0.3,2.7,0.6,4,0.9c2.2,0.4,4.4,0.7,6.6,1c1.2,0.1,2.3,0.3,3.5,0.4
	c3.4,0.3,6.8,0.5,10.3,0.5c42.2,0,78.6-23.2,97.4-57.8c0.2-0.4,0.5-0.9,0.7-1.3c1.3-2.5,2.6-5,3.7-7.6c0.6-1.5,1.2-3,1.8-4.5
	c0.6-1.6,1.2-3.2,1.8-4.9c0.8-2.4,1.5-4.9,2.1-7.4c0.2-0.8,0.4-1.6,0.6-2.4c0.7-3.1,1.3-6.3,1.7-9.5c0-0.3,0.1-0.5,0.1-0.8
	c0.5-3.5,0.8-7,0.9-10.6c0-0.1,0-0.2,0-0.3c0,0,0,0,0-0.1c0-1.2,0.2-2.5,0.2-3.7c0-61.2-49.8-110.9-110.9-110.9
	c-48.4,0-90.8,31.3-105.5,76.8h-17.7c15-54,64.5-93.9,123.2-93.9c70.6,0,128,57.4,128,128C384,386.3,326.6,443.7,256,443.7z"/>
<rect x="264.5" y="247.5" width="17.1" height="17.1"/>
<rect x="264.5" y="298.7" width="17.1" height="17.1"/>
<rect x="290.1" y="273.1" width="17.1" height="17.1"/>
<rect x="238.9" y="273.1" width="17.1" height="17.1"/>
</svg>
